<?xml version="1.0" encoding="UTF-8" standalone="no"?>
<svg
   width="12"
   height="11"
   viewBox="0 0 12 11"
   fill="none"
   version="1.1"
   id="svg1"
   sodipodi:docname="arrow.svg"
   inkscape:version="1.3.2 (091e20e, 2023-11-25, custom)"
   xmlns:inkscape="http://www.inkscape.org/namespaces/inkscape"
   xmlns:sodipodi="http://sodipodi.sourceforge.net/DTD/sodipodi-0.dtd"
   xmlns="http://www.w3.org/2000/svg"
   xmlns:svg="http://www.w3.org/2000/svg">
  <defs
     id="defs1" />
  <sodipodi:namedview
     id="namedview1"
     pagecolor="#ffffff"
     bordercolor="#cccccc"
     borderopacity="1"
     inkscape:showpageshadow="0"
     inkscape:pageopacity="1"
     inkscape:pagecheckerboard="0"
     inkscape:deskcolor="#d1d1d1"
     inkscape:zoom="107.36364"
     inkscape:cx="5.9983065"
     inkscape:cy="5.5"
     inkscape:window-width="3440"
     inkscape:window-height="1377"
     inkscape:window-x="-8"
     inkscape:window-y="-8"
     inkscape:window-maximized="1"
     inkscape:current-layer="svg1" />
  <path
     style="color:#000000;fill:#ffffff;stroke-linecap:round;stroke-linejoin:round;-inkscape-stroke:none"
     d="M 7.1660156,0.91601563 A 0.5,0.5 0 0 0 6.8125,1.0625 a 0.5,0.5 0 0 0 0,0.7070312 L 10.042969,5 H 0.75 A 0.5,0.5 0 0 0 0.25,5.5 0.5,0.5 0 0 0 0.75,6 h 9.292969 L 6.8125,9.2304688 a 0.5,0.5 0 0 0 0,0.7070312 0.5,0.5 0 0 0 0.7070312,0 L 11.603516,5.8535156 A 0.5,0.5 0 0 0 11.720703,5.6484375 0.5,0.5 0 0 0 11.732422,5.5898437 0.5,0.5 0 0 0 11.75,5.5 a 0.5,0.5 0 0 0 -0.01758,-0.089844 0.5,0.5 0 0 0 -0.01172,-0.058594 0.5,0.5 0 0 0 -0.0078,-0.042969 0.5,0.5 0 0 0 -0.109375,-0.1621093 L 7.5195312,1.0625 A 0.5,0.5 0 0 0 7.1660156,0.91601563 Z"
     id="path1" />
</svg>
