<?xml version="1.0" encoding="UTF-8" standalone="no"?>
<svg
   width="16"
   height="16"
   viewBox="0 0 16 16"
   fill="none"
   version="1.1"
   id="svg1"
   sodipodi:docname="arrows.svg"
   inkscape:version="1.3.2 (091e20e, 2023-11-25, custom)"
   xmlns:inkscape="http://www.inkscape.org/namespaces/inkscape"
   xmlns:sodipodi="http://sodipodi.sourceforge.net/DTD/sodipodi-0.dtd"
   xmlns="http://www.w3.org/2000/svg"
   xmlns:svg="http://www.w3.org/2000/svg">
  <defs
     id="defs1" />
  <sodipodi:namedview
     id="namedview1"
     pagecolor="#ffffff"
     bordercolor="#cccccc"
     borderopacity="1"
     inkscape:showpageshadow="0"
     inkscape:pageopacity="1"
     inkscape:pagecheckerboard="0"
     inkscape:deskcolor="#d1d1d1"
     inkscape:zoom="73.8125"
     inkscape:cx="7.9932261"
     inkscape:cy="8"
     inkscape:window-width="3440"
     inkscape:window-height="1377"
     inkscape:window-x="-8"
     inkscape:window-y="-8"
     inkscape:window-maximized="1"
     inkscape:current-layer="svg1" />
  <path
     style="color:#000000;fill:#2b3239;stroke-linecap:round;stroke-linejoin:round;-inkscape-stroke:none"
     d="m 5.0332031,2.8339844 a 0.5,0.5 0 0 0 -0.1132812,0.048828 0.5,0.5 0 0 0 -0.052734,0.021484 0.5,0.5 0 0 0 -0.1816406,0.072266 l -0.00586,0.00586 -2.3632812,2.328125 a 0.5,0.5 0 0 0 -0.00586,0.7070312 0.5,0.5 0 0 0 0.7070312,0.00586 L 4.5371094,4.5273437 v 8.1386723 a 0.5,0.5 0 0 0 0.5,0.5 0.5,0.5 0 0 0 0.5,-0.5 V 4.5273437 l 1.5195312,1.4960938 a 0.5,0.5 0 0 0 0.7070313,-0.00586 0.5,0.5 0 0 0 -0.00586,-0.7070312 L 5.3925781,2.9824219 a 0.5,0.5 0 0 0 -0.00195,-0.00195 l -0.00391,-0.00391 a 0.5,0.5 0 0 0 -0.00391,-0.00195 0.5,0.5 0 0 0 -0.3378906,-0.1386719 0.5,0.5 0 0 0 -0.00586,-0.00195 0.5,0.5 0 0 0 -0.00195,0 0.5,0.5 0 0 0 -0.00195,0 0.5,0.5 0 0 0 -0.00195,0 z m 5.9296879,0 a 0.5,0.5 0 0 0 -0.5,0.5 V 11.472656 L 8.9433594,9.9765625 a 0.5,0.5 0 0 0 -0.7070313,0.00586 0.5,0.5 0 0 0 0.00586,0.7070311 l 2.3691405,2.333985 a 0.5,0.5 0 0 0 0.0078,0 0.5,0.5 0 0 0 0.002,0 0.5,0.5 0 0 0 0.132812,0.05469 0.5,0.5 0 0 0 0.207032,0.08789 0.5,0.5 0 0 0 0.002,0 0.5,0.5 0 0 0 0.117187,-0.04883 0.5,0.5 0 0 0 0.234375,-0.09375 l 2.369141,-2.333985 a 0.5,0.5 0 0 0 0.0059,-0.7070311 0.5,0.5 0 0 0 -0.707031,-0.00586 L 11.462891,11.472656 V 3.3339844 a 0.5,0.5 0 0 0 -0.5,-0.5 z"
     id="path1" />
</svg>
