<?xml version="1.0" encoding="UTF-8" standalone="no"?>
<svg
   width="26"
   height="26"
   viewBox="0 0 26 26"
   fill="none"
   version="1.1"
   id="svg4"
   sodipodi:docname="attachment.svg"
   inkscape:version="1.3.2 (091e20e, 2023-11-25, custom)"
   xmlns:inkscape="http://www.inkscape.org/namespaces/inkscape"
   xmlns:sodipodi="http://sodipodi.sourceforge.net/DTD/sodipodi-0.dtd"
   xmlns="http://www.w3.org/2000/svg"
   xmlns:svg="http://www.w3.org/2000/svg">
  <defs
     id="defs4" />
  <sodipodi:namedview
     id="namedview4"
     pagecolor="#ffffff"
     bordercolor="#cccccc"
     borderopacity="1"
     inkscape:showpageshadow="0"
     inkscape:pageopacity="1"
     inkscape:pagecheckerboard="0"
     inkscape:deskcolor="#d1d1d1"
     inkscape:zoom="45.423077"
     inkscape:cx="12.988992"
     inkscape:cy="13"
     inkscape:window-width="3440"
     inkscape:window-height="1377"
     inkscape:window-x="-8"
     inkscape:window-y="-8"
     inkscape:window-maximized="1"
     inkscape:current-layer="svg4" />
  <path
     style="color:#000000;fill:#bdbdbd;stroke-linecap:round;stroke-linejoin:round;-inkscape-stroke:none"
     d="M 3.9003906,2.75 C 3.2711826,2.75 2.75,3.2711826 2.75,3.9003906 V 22.099609 C 2.75,22.728822 3.2712012,23.25 3.9003906,23.25 H 14.083984 a 0.5,0.5 0 0 0 0.5,-0.5 0.5,0.5 0 0 0 -0.5,-0.5 H 3.9003906 C 3.8116208,22.25 3.75,22.188396 3.75,22.099609 V 3.9003906 C 3.75,3.8116393 3.8116393,3.75 3.9003906,3.75 H 22.099609 C 22.188396,3.75 22.25,3.8116208 22.25,3.9003906 V 14.083984 a 0.5,0.5 0 0 0 0.5,0.5 0.5,0.5 0 0 0 0.5,-0.5 V 3.9003906 C 23.25,3.2712012 22.728822,2.75 22.099609,2.75 Z"
     id="path1" />
  <path
     style="color:#000000;fill:#bdbdbd;stroke-linecap:round;stroke-linejoin:round;-inkscape-stroke:none"
     d="m 10.636719,13.623047 -7.5839846,3.25 a 0.5,0.5 0 0 0 -0.2617188,0.658203 0.5,0.5 0 0 0 0.65625,0.261719 l 7.3808594,-3.16211 5.755859,2.615235 a 0.5,0.5 0 0 0 0.66211,-0.248047 0.5,0.5 0 0 0 -0.248047,-0.66211 l -5.957031,-2.707031 a 0.50005,0.50005 0 0 0 -0.404297,-0.0059 z"
     id="path2" />
  <path
     style="color:#000000;fill:#bdbdbd;stroke-linecap:round;stroke-linejoin:round;-inkscape-stroke:none"
     d="m 17.333984,6 c -1.466822,0 -2.666015,1.1991916 -2.666015,2.6660156 0,1.4668164 1.199201,2.6679684 2.666015,2.6679684 1.466892,0 2.667969,-1.201152 2.667969,-2.6679684 C 20.001953,7.1991916 18.800884,6 17.333984,6 Z m 0,1 c 0.926498,0 1.667969,0.7396021 1.667969,1.6660156 0,0.9264013 -0.741463,1.6679684 -1.667969,1.6679684 -0.926383,0 -1.666015,-0.7415671 -1.666015,-1.6679684 C 15.667969,7.7396021 16.407609,7 17.333984,7 Z"
     id="path3" />
  <path
     style="color:#000000;fill:#bdbdbd;stroke-linecap:round;stroke-linejoin:round;-inkscape-stroke:none"
     d="m 20.582031,16.833984 a 0.5,0.5 0 0 0 -0.5,0.5 v 2.75 h -2.75 a 0.5,0.5 0 0 0 -0.5,0.5 0.5,0.5 0 0 0 0.5,0.5 h 2.75 v 2.75 a 0.5,0.5 0 0 0 0.5,0.5 0.5,0.5 0 0 0 0.5,-0.5 v -2.75 h 2.75 a 0.5,0.5 0 0 0 0.5,-0.5 0.5,0.5 0 0 0 -0.5,-0.5 h -2.75 v -2.75 a 0.5,0.5 0 0 0 -0.5,-0.5 z"
     id="path4" />
</svg>
