<?xml version="1.0" encoding="UTF-8" standalone="no"?>
<svg
   width="18"
   height="19"
   viewBox="0 0 18 19"
   fill="none"
   version="1.1"
   id="svg3"
   sodipodi:docname="buys.svg"
   inkscape:version="1.3.2 (091e20e, 2023-11-25, custom)"
   xmlns:inkscape="http://www.inkscape.org/namespaces/inkscape"
   xmlns:sodipodi="http://sodipodi.sourceforge.net/DTD/sodipodi-0.dtd"
   xmlns="http://www.w3.org/2000/svg"
   xmlns:svg="http://www.w3.org/2000/svg">
  <defs
     id="defs3" />
  <sodipodi:namedview
     id="namedview3"
     pagecolor="#ffffff"
     bordercolor="#cccccc"
     borderopacity="1"
     inkscape:showpageshadow="0"
     inkscape:pageopacity="1"
     inkscape:pagecheckerboard="0"
     inkscape:deskcolor="#d1d1d1"
     inkscape:zoom="62.157895"
     inkscape:cx="8.9932261"
     inkscape:cy="9.5"
     inkscape:window-width="3440"
     inkscape:window-height="1377"
     inkscape:window-x="-8"
     inkscape:window-y="-8"
     inkscape:window-maximized="1"
     inkscape:current-layer="svg3" />
  <path
     style="color:#000000;fill:#99a2b3;stroke-linecap:round;stroke-linejoin:round;-inkscape-stroke:none"
     d="M 4.0058594,5.75 C 3.4561056,5.75 2.9561297,6.0872147 2.7519531,6.5976562 L 1.890625,8.75 h -0.091797 c -0.7366866,0 -1.34960935,0.6129099 -1.34960935,1.349609 v 3 c 0,0.736695 0.61295295,1.34961 1.34960935,1.34961 h 1.3632813 c 0.3119842,0.665916 0.8595227,1.201172 1.6367187,1.201172 0.7770733,0 1.3246681,-0.535424 1.6367188,-1.201172 h 1.5273437 c 0.3120489,0.665747 0.8596398,1.201172 1.6367188,1.201172 0.7772076,0 1.3247436,-0.53526 1.6367186,-1.201172 h 1.363281 c 0.73665,0 1.34961,-0.61296 1.34961,-1.34961 v -2.021484 c 0,-0.55419 -0.343146,-1.056609 -0.859375,-1.2578125 L 10.710938,8.8945313 9.2167969,6.40625 C 8.9734033,6.0005491 8.5316847,5.75 8.0585938,5.75 Z m 0.1015625,1.5 h 3.8671875 l 1.5820312,2.6367188 a 0.750075,0.750075 0 0 0 0.3710938,0.3125002 l 2.5214846,0.982422 v 1.767578 H 11.236328 C 10.924163,12.283788 10.376465,11.75 9.5996094,11.75 c -0.7767273,0 -1.3244796,0.533953 -1.6367188,1.199219 H 6.4355469 C 6.1233058,12.283952 5.5755498,11.75 4.7988281,11.75 c -0.7768443,0 -1.324544,0.533784 -1.6367187,1.199219 H 1.9492187 V 10.25 H 2.3984375 A 0.750075,0.750075 0 0 0 3.0957031,9.7792969 Z m 0.6914062,6 C 5.0562807,13.25 5.25,13.441715 5.25,13.699219 c 0,0.257504 -0.1937193,0.451172 -0.4511719,0.451172 -0.2574526,0 -0.4492187,-0.193668 -0.4492187,-0.451172 0,-0.257504 0.1917661,-0.449219 0.4492187,-0.449219 z m 4.8007813,0 c 0.257517,0 0.4492186,0.191669 0.4492186,0.449219 0,0.257549 -0.1917016,0.451172 -0.4492186,0.451172 -0.2574849,0 -0.4511719,-0.193653 -0.4511719,-0.451172 0,-0.257519 0.193687,-0.449219 0.4511719,-0.449219 z"
     id="path1" />
  <path
     style="color:#000000;fill:#99a2b3;stroke-linecap:round;stroke-linejoin:round;-inkscape-stroke:none"
     d="m 14,2.8066406 a 0.50005,0.50005 0 0 0 -0.5,0.4941407 c 0,1.2761797 -1.024602,2.2988281 -2.300781,2.2988281 a 0.50005,0.50005 0 0 0 0,1 c 1.276179,0 2.300781,1.0246015 2.300781,2.3007812 a 0.50005,0.50005 0 0 0 1,0 c 0,-1.2761797 1.022648,-2.3007812 2.298828,-2.3007812 a 0.50005,0.50005 0 0 0 0,-1 C 15.522648,5.5996094 14.5,4.576961 14.5,3.3007813 A 0.50005,0.50005 0 0 0 14,2.8066406 Z m 0,2.1289063 c 0.285701,0.4847695 0.677492,0.8781287 1.162109,1.1640625 C 14.677492,6.3855431 14.285701,6.7789023 14,7.2636719 13.714186,6.7784659 13.320975,6.3856817 12.835938,6.0996094 13.320975,5.8135371 13.714186,5.4207528 14,4.9355469 Z"
     id="path2" />
  <path
     style="color:#000000;fill:#99a2b3;stroke-linecap:round;stroke-linejoin:round;-inkscape-stroke:none"
     d="m 10.501953,1.6992187 c 0,0.502967 -0.39736,0.9003907 -0.9003905,0.9003907 v 1 c 0.5030305,0 0.9003905,0.3974236 0.9003905,0.9003906 a 0.50005,0.50005 0 0 0 1,0 c 0,-0.502967 0.397415,-0.9003906 0.900391,-0.9003906 A 0.50005,0.50005 0 0 0 12.828125,2.8515625 0.50005,0.50005 0 0 0 12.402344,2.5996094 c -0.502976,0 -0.900391,-0.3974237 -0.900391,-0.9003907 z m 0.5,1.2011719 c 0.06631,0.077773 0.121446,0.1329091 0.199219,0.1992188 -0.07777,0.06631 -0.13291,0.1214455 -0.199219,0.1992187 -0.06631,-0.077773 -0.121444,-0.1329091 -0.199219,-0.1992187 0.07778,-0.06631 0.132909,-0.1214456 0.199219,-0.1992188 z"
     id="path3" />
</svg>
