<?xml version="1.0" encoding="UTF-8" standalone="no"?>
<svg
   width="24"
   height="24"
   viewBox="0 0 24 24"
   fill="none"
   version="1.1"
   id="svg2"
   sodipodi:docname="check-circle.svg"
   inkscape:version="1.3.2 (091e20e, 2023-11-25, custom)"
   xmlns:inkscape="http://www.inkscape.org/namespaces/inkscape"
   xmlns:sodipodi="http://sodipodi.sourceforge.net/DTD/sodipodi-0.dtd"
   xmlns="http://www.w3.org/2000/svg"
   xmlns:svg="http://www.w3.org/2000/svg">
  <defs
     id="defs2" />
  <sodipodi:namedview
     id="namedview2"
     pagecolor="#ffffff"
     bordercolor="#cccccc"
     borderopacity="1"
     inkscape:showpageshadow="0"
     inkscape:pageopacity="1"
     inkscape:pagecheckerboard="0"
     inkscape:deskcolor="#d1d1d1"
     inkscape:zoom="49.208333"
     inkscape:cx="11.989839"
     inkscape:cy="12"
     inkscape:window-width="3440"
     inkscape:window-height="1377"
     inkscape:window-x="-8"
     inkscape:window-y="-8"
     inkscape:window-maximized="1"
     inkscape:current-layer="svg2" />
  <path
     style="color:#000000;fill:#81a6ca;stroke-linecap:round;stroke-linejoin:round;-inkscape-stroke:none"
     d="M 16.646484,8.1464844 10,14.792969 7.3535156,12.146484 a 0.5,0.5 0 0 0 -0.7070312,0 0.5,0.5 0 0 0 0,0.707032 l 3,3 a 0.50005,0.50005 0 0 0 0.7070316,0 l 7,-7.0000004 a 0.5,0.5 0 0 0 0,-0.7070312 0.5,0.5 0 0 0 -0.707032,0 z"
     id="path1" />
  <path
     style="color:#000000;fill:#81a6ca;stroke-linecap:round;stroke-linejoin:round;-inkscape-stroke:none"
     d="M 12,1.5 C 6.206936,1.5 1.5,6.206936 1.5,12 1.5,17.793016 6.206933,22.5 12,22.5 17.793019,22.5 22.5,17.793019 22.5,12 22.5,6.206933 17.793016,1.5 12,1.5 Z m 0,1 c 5.252573,0 9.5,4.2473781 9.5,9.5 0,5.252569 -4.247431,9.5 -9.5,9.5 C 6.7473781,21.5 2.5,17.252573 2.5,12 2.5,6.747375 6.747375,2.5 12,2.5 Z"
     id="path2" />
</svg>
