<?xml version="1.0" encoding="UTF-8" standalone="no"?>
<svg
   width="10"
   height="10"
   viewBox="0 0 10 10"
   fill="none"
   version="1.1"
   id="svg1"
   sodipodi:docname="close.svg"
   inkscape:version="1.3.2 (091e20e, 2023-11-25, custom)"
   xmlns:inkscape="http://www.inkscape.org/namespaces/inkscape"
   xmlns:sodipodi="http://sodipodi.sourceforge.net/DTD/sodipodi-0.dtd"
   xmlns="http://www.w3.org/2000/svg"
   xmlns:svg="http://www.w3.org/2000/svg">
  <defs
     id="defs1" />
  <sodipodi:namedview
     id="namedview1"
     pagecolor="#ffffff"
     bordercolor="#cccccc"
     borderopacity="1"
     inkscape:showpageshadow="0"
     inkscape:pageopacity="1"
     inkscape:pagecheckerboard="0"
     inkscape:deskcolor="#d1d1d1"
     inkscape:zoom="118.1"
     inkscape:cx="4.9957663"
     inkscape:cy="5"
     inkscape:window-width="3440"
     inkscape:window-height="1377"
     inkscape:window-x="-8"
     inkscape:window-y="-8"
     inkscape:window-maximized="1"
     inkscape:current-layer="svg1" />
  <path
     style="color:#000000;fill:#2b3239;stroke-linecap:round;stroke-linejoin:round;-inkscape-stroke:none"
     d="m 1,0.5 a 0.5,0.5 0 0 0 -0.35351563,0.14648437 0.5,0.5 0 0 0 0,0.70703123 L 4.2929687,5 0.64648437,8.6464844 a 0.5,0.5 0 0 0 0,0.7070312 0.5,0.5 0 0 0 0.70703123,0 L 5,5.7070312 8.6464844,9.3535156 a 0.5,0.5 0 0 0 0.7070312,0 0.5,0.5 0 0 0 0,-0.7070312 L 5.7070312,5 9.3535156,1.3535156 a 0.5,0.5 0 0 0 0,-0.70703123 0.5,0.5 0 0 0 -0.7070312,0 L 5,4.2929687 1.3535156,0.64648437 A 0.5,0.5 0 0 0 1,0.5 Z"
     id="path1" />
</svg>
