<?xml version="1.0" encoding="UTF-8" standalone="no"?>
<svg
   width="16"
   height="16"
   viewBox="0 0 16 16"
   fill="none"
   version="1.1"
   id="svg1"
   sodipodi:docname="close-circle.svg"
   inkscape:version="1.3.2 (091e20e, 2023-11-25, custom)"
   xmlns:inkscape="http://www.inkscape.org/namespaces/inkscape"
   xmlns:sodipodi="http://sodipodi.sourceforge.net/DTD/sodipodi-0.dtd"
   xmlns="http://www.w3.org/2000/svg"
   xmlns:svg="http://www.w3.org/2000/svg">
  <sodipodi:namedview
     id="namedview1"
     pagecolor="#ffffff"
     bordercolor="#cccccc"
     borderopacity="1"
     inkscape:showpageshadow="0"
     inkscape:pageopacity="1"
     inkscape:pagecheckerboard="0"
     inkscape:deskcolor="#d1d1d1"
     inkscape:zoom="73.8125"
     inkscape:cx="7.9932261"
     inkscape:cy="8"
     inkscape:window-width="3440"
     inkscape:window-height="1377"
     inkscape:window-x="-8"
     inkscape:window-y="-8"
     inkscape:window-maximized="1"
     inkscape:current-layer="svg1" />
  <path
     style="color:#000000;fill:#2b3239;stroke-linecap:round;stroke-linejoin:round;-inkscape-stroke:none"
     d="M 8,0.83398438 C 4.0478848,0.83398438 0.83398437,4.0478848 0.83398438,8 c 0,3.952115 3.21389682,7.166016 7.16601562,7.166016 3.952054,0 7.166016,-3.213897 7.166016,-7.166016 C 15.166016,4.0478812 11.95205,0.83398438 8,0.83398438 Z M 8,1.8339844 c 3.411602,0 6.166016,2.7543418 6.166016,6.1660156 0,3.411674 -2.754417,6.166016 -6.166016,6.166016 C 4.5883262,14.166016 1.8339844,11.411677 1.8339844,8 1.8339844,4.5883226 4.5883226,1.8339844 8,1.8339844 Z m -2.6660156,3 a 0.5,0.5 0 0 0 -0.3554688,0.1464843 0.5,0.5 0 0 0 0,0.7070313 L 7.2929687,8 4.9785156,10.3125 a 0.5,0.5 0 0 0 0,0.707031 0.5,0.5 0 0 0 0.7089844,0 L 8,8.7070313 10.3125,11.019531 a 0.5,0.5 0 0 0 0.707031,0 0.5,0.5 0 0 0 0,-0.707031 L 8.7070313,8 11.019531,5.6875 a 0.5,0.5 0 0 0 0,-0.7070313 0.5,0.5 0 0 0 -0.707031,0 L 8,7.2929687 5.6875,4.9804687 A 0.5,0.5 0 0 0 5.3339844,4.8339844 Z"
     id="path1" />
  <defs
     id="defs1">
    <clipPath
       clipPathUnits="userSpaceOnUse"
       id="clipPath2">
      <g
         id="g3">
        <rect
           width="16"
           height="16"
           fill="#ffffff"
           id="rect2"
           x="0"
           y="0" />
      </g>
    </clipPath>
  </defs>
</svg>
