<?xml version="1.0" encoding="UTF-8" standalone="no"?>
<svg
   width="18"
   height="18"
   viewBox="0 0 18 18"
   fill="none"
   version="1.1"
   id="svg2"
   sodipodi:docname="copy.svg"
   inkscape:version="1.3.2 (091e20e, 2023-11-25, custom)"
   xmlns:inkscape="http://www.inkscape.org/namespaces/inkscape"
   xmlns:sodipodi="http://sodipodi.sourceforge.net/DTD/sodipodi-0.dtd"
   xmlns="http://www.w3.org/2000/svg"
   xmlns:svg="http://www.w3.org/2000/svg">
  <defs
     id="defs2" />
  <sodipodi:namedview
     id="namedview2"
     pagecolor="#ffffff"
     bordercolor="#cccccc"
     borderopacity="1"
     inkscape:showpageshadow="0"
     inkscape:pageopacity="1"
     inkscape:pagecheckerboard="0"
     inkscape:deskcolor="#d1d1d1"
     inkscape:zoom="65.611111"
     inkscape:cx="8.9923793"
     inkscape:cy="9"
     inkscape:window-width="3440"
     inkscape:window-height="1377"
     inkscape:window-x="-8"
     inkscape:window-y="-8"
     inkscape:window-maximized="1"
     inkscape:current-layer="svg2" />
  <path
     style="color:#000000;fill:#99a2b3;stroke-linecap:round;stroke-linejoin:round;-inkscape-stroke:none"
     d="M 3.4492188,2.5 C 2.9304737,2.5 2.5,2.9304737 2.5,3.4492188 V 10.800781 C 2.5,11.31952 2.9305676,11.75 3.4492188,11.75 H 6.75 a 0.5,0.5 0 0 0 0.5,-0.5 0.5,0.5 0 0 0 -0.5,-0.5 H 3.5 V 3.5 h 7.25 v 3.25 a 0.5,0.5 0 0 0 0.5,0.5 0.5,0.5 0 0 0 0.5,-0.5 V 3.4492188 C 11.75,2.9305676 11.31952,2.5 10.800781,2.5 Z"
     id="path1" />
  <path
     style="color:#000000;fill:#99a2b3;stroke-linecap:round;stroke-linejoin:round;-inkscape-stroke:none"
     d="M 7.1992187,6.25 C 6.6804737,6.25 6.25,6.6804737 6.25,7.1992187 V 14.550781 C 6.25,15.06952 6.6805676,15.5 7.1992187,15.5 H 14.550781 C 15.069426,15.5 15.5,15.069426 15.5,14.550781 V 7.1992187 C 15.5,6.6805676 15.06952,6.25 14.550781,6.25 Z M 7.25,7.25 H 14.5 V 14.5 H 7.25 Z"
     id="path2" />
</svg>
