<?xml version="1.0" encoding="UTF-8" standalone="no"?>
<svg
   width="18"
   height="19"
   viewBox="0 0 18 19"
   fill="none"
   version="1.1"
   id="svg7"
   sodipodi:docname="delivery.svg"
   inkscape:version="1.3.2 (091e20e, 2023-11-25, custom)"
   xmlns:inkscape="http://www.inkscape.org/namespaces/inkscape"
   xmlns:sodipodi="http://sodipodi.sourceforge.net/DTD/sodipodi-0.dtd"
   xmlns="http://www.w3.org/2000/svg"
   xmlns:svg="http://www.w3.org/2000/svg">
  <defs
     id="defs7" />
  <sodipodi:namedview
     id="namedview7"
     pagecolor="#ffffff"
     bordercolor="#cccccc"
     borderopacity="1"
     inkscape:showpageshadow="0"
     inkscape:pageopacity="1"
     inkscape:pagecheckerboard="0"
     inkscape:deskcolor="#d1d1d1"
     inkscape:zoom="62.157895"
     inkscape:cx="8.9932261"
     inkscape:cy="9.5"
     inkscape:window-width="3440"
     inkscape:window-height="1377"
     inkscape:window-x="-8"
     inkscape:window-y="-8"
     inkscape:window-maximized="1"
     inkscape:current-layer="svg7" />
  <path
     style="color:#000000;fill:#99a2b3;stroke-linecap:round;stroke-linejoin:round;stroke-miterlimit:1.5;-inkscape-stroke:none"
     d="m 6,11 c -1.2337738,0 -2.25,1.01626 -2.25,2.25 0,1.23374 1.0162262,2.25 2.25,2.25 1.2337738,0 2.25,-1.01626 2.25,-2.25 C 8.25,12.01626 7.2337738,11 6,11 Z m 0,1.5 c 0.4230845,0 0.75,0.326942 0.75,0.75 C 6.75,13.673058 6.4230845,14 6,14 5.5769155,14 5.25,13.673058 5.25,13.25 5.25,12.826942 5.5769155,12.5 6,12.5 Z"
     id="path1" />
  <path
     style="color:#000000;fill:#99a2b3;stroke-linecap:round;stroke-linejoin:round;stroke-miterlimit:1.5;-inkscape-stroke:none"
     d="m 13.5,11 c -1.233758,0 -2.25,1.016242 -2.25,2.25 0,1.233758 1.016242,2.25 2.25,2.25 1.233758,0 2.25,-1.016242 2.25,-2.25 C 15.75,12.016242 14.733758,11 13.5,11 Z m 0,1.5 c 0.42304,0 0.75,0.32696 0.75,0.75 0,0.42304 -0.32696,0.75 -0.75,0.75 -0.42304,0 -0.75,-0.32696 -0.75,-0.75 0,-0.42304 0.32696,-0.75 0.75,-0.75 z"
     id="path2" />
  <path
     style="color:#000000;fill:#99a2b3;stroke-linecap:round;-inkscape-stroke:none"
     d="M 0.75,4.25 A 0.75,0.75 0 0 0 0,5 0.75,0.75 0 0 0 0.75,5.75 H 10.5 V 12.5 H 7.5371094 a 0.75,0.75 0 0 0 -0.75,0.75 0.75,0.75 0 0 0 0.75,0.75 H 12 V 5.4492187 C 12,4.7955069 11.45459,4.25 10.800781,4.25 Z"
     id="path3" />
  <path
     style="color:#000000;fill:#99a2b3;stroke-linecap:round;-inkscape-stroke:none"
     d="M 2.25,8.375 A 0.75,0.75 0 0 0 1.5,9.125 v 3.675781 C 1.5,13.45459 2.0455069,14 2.6992188,14 h 1.5390624 a 0.75,0.75 0 0 0 0.75,-0.75 0.75,0.75 0 0 0 -0.75,-0.75 H 3 V 9.125 A 0.75,0.75 0 0 0 2.25,8.375 Z"
     id="path4" />
  <path
     style="color:#000000;fill:#99a2b3;stroke-linecap:round;stroke-linejoin:round;-inkscape-stroke:none"
     d="M 1.5,6.5 A 0.75,0.75 0 0 0 0.75,7.25 0.75,0.75 0 0 0 1.5,8 h 3 A 0.75,0.75 0 0 0 5.25,7.25 0.75,0.75 0 0 0 4.5,6.5 Z"
     id="path5" />
  <path
     style="color:#000000;fill:#99a2b3;stroke-linecap:round;-inkscape-stroke:none"
     d="M 11.25,6.5 A 0.75,0.75 0 0 0 10.5,7.25 0.75,0.75 0 0 0 11.25,8 h 4.011719 L 16.5,10.785156 V 12.5 h -1.125 a 0.75,0.75 0 0 0 -0.75,0.75 0.75,0.75 0 0 0 0.75,0.75 h 1.425781 C 17.454713,14 18,13.454713 18,12.800781 v -2.080078 c 0,-0.167828 -0.03526,-0.334708 -0.103516,-0.488281 L 16.554687,7.2128906 C 16.362855,6.7811092 15.929347,6.5 15.457031,6.5 Z"
     id="path6" />
  <path
     style="color:#000000;fill:#99a2b3;stroke-linecap:round;-inkscape-stroke:none"
     d="M 11.25,12.5 A 0.75,0.75 0 0 0 10.5,13.25 0.75,0.75 0 0 0 11.25,14 H 12 A 0.75,0.75 0 0 0 12.75,13.25 0.75,0.75 0 0 0 12,12.5 Z"
     id="path7" />
</svg>
