<svg width="16" height="17" viewBox="0 0 16 17" fill="none" xmlns="http://www.w3.org/2000/svg">
<path fill-rule="evenodd" clip-rule="evenodd" d="M8.94392 1.81595C8.36332 1.4676 7.63805 1.4676 7.05745 1.81594L1.72407 5.01595C1.17187 5.34728 0.833984 5.94404 0.833984 6.58802V13.8331C0.833984 14.8457 1.6548 15.6664 2.66732 15.6664H13.334C14.3465 15.6664 15.1673 14.8457 15.1673 13.8331V6.58802C15.1673 5.94404 14.8295 5.34728 14.2773 5.01596L8.94392 1.81595ZM4.95405 8.0904C4.72782 7.932 4.41606 7.98707 4.2577 8.21327C4.09934 8.43947 4.15436 8.75127 4.38058 8.9096L7.71392 11.2429C7.88605 11.3635 8.11525 11.3635 8.28738 11.2429L11.6207 8.9096C11.8469 8.75127 11.902 8.43947 11.7436 8.21327C11.5853 7.98707 11.2735 7.932 11.0473 8.0904L8.00065 10.223L4.95405 8.0904Z" fill="#99A2B3"/>
</svg>
