<?xml version="1.0" encoding="UTF-8" standalone="no"?>
<svg
   width="24"
   height="24"
   viewBox="0 0 24 24"
   fill="none"
   version="1.1"
   id="svg1"
   sodipodi:docname="heart.svg"
   inkscape:version="1.3.2 (091e20e, 2023-11-25, custom)"
   xmlns:inkscape="http://www.inkscape.org/namespaces/inkscape"
   xmlns:sodipodi="http://sodipodi.sourceforge.net/DTD/sodipodi-0.dtd"
   xmlns="http://www.w3.org/2000/svg"
   xmlns:svg="http://www.w3.org/2000/svg">
  <defs
     id="defs1" />
  <sodipodi:namedview
     id="namedview1"
     pagecolor="#ffffff"
     bordercolor="#cccccc"
     borderopacity="1"
     inkscape:showpageshadow="0"
     inkscape:pageopacity="1"
     inkscape:pagecheckerboard="0"
     inkscape:deskcolor="#d1d1d1"
     inkscape:zoom="49.208333"
     inkscape:cx="11.989839"
     inkscape:cy="12"
     inkscape:window-width="3440"
     inkscape:window-height="1377"
     inkscape:window-x="-8"
     inkscape:window-y="-8"
     inkscape:window-maximized="1"
     inkscape:current-layer="svg1" />
  <path
     style="color:#000000;fill:#2b3239;stroke-linecap:round;stroke-linejoin:round;-inkscape-stroke:none"
     d="M 8.4648438,2.7226563 C 6.8594576,2.3061221 5.1877187,2.790093 3.8945313,3.8261719 1.3081564,5.8983296 0.21442576,10.283192 3.7558594,14.330078 c 3.5483631,4.054855 6.4981126,5.631482 7.8906246,7.023438 a 0.50005,0.50005 0 0 0 0.707032,0 C 13.735591,19.971901 16.824515,18.3895 20.376953,14.330078 23.919495,10.28197 22.786745,5.8937251 20.167969,3.8242188 18.85858,2.7894656 17.173332,2.3067638 15.556641,2.7226563 14.155512,3.0830954 12.922118,4.2716487 12.001953,6.078125 11.084176,4.2724025 9.8561175,3.0836367 8.4648438,2.7226563 Z m -0.25,0.9667968 C 9.473626,4.0160573 10.702035,5.0395449 11.535156,7.1816406 a 0.50005,0.50005 0 0 0 0.931641,0 c 0.832716,-2.1411088 2.067722,-3.1629823 3.339844,-3.4902343 1.272121,-0.3272521 2.640515,0.047365 3.742187,0.9179687 2.203344,1.7412073 3.32027,5.3531959 0.07422,9.0625 -3.261016,3.726409 -5.958584,5.17458 -7.619141,6.691406 C 10.364109,18.854736 7.7725329,17.4026 4.5078125,13.671875 1.2607629,9.9613889 2.3495308,6.3459878 4.5195312,4.6074219 5.6045315,3.7381389 6.9560615,3.362849 8.2148438,3.6894531 Z"
     id="path1" />
</svg>
