<?xml version="1.0" encoding="UTF-8" standalone="no"?>
<svg
   width="14"
   height="14"
   viewBox="0 0 14 14"
   fill="none"
   version="1.1"
   id="svg7"
   sodipodi:docname="list.svg"
   inkscape:version="1.3.2 (091e20e, 2023-11-25, custom)"
   xmlns:inkscape="http://www.inkscape.org/namespaces/inkscape"
   xmlns:sodipodi="http://sodipodi.sourceforge.net/DTD/sodipodi-0.dtd"
   xmlns="http://www.w3.org/2000/svg"
   xmlns:svg="http://www.w3.org/2000/svg">
  <sodipodi:namedview
     id="namedview7"
     pagecolor="#ffffff"
     bordercolor="#cccccc"
     borderopacity="1"
     inkscape:showpageshadow="0"
     inkscape:pageopacity="1"
     inkscape:pagecheckerboard="0"
     inkscape:deskcolor="#d1d1d1"
     inkscape:zoom="84.357143"
     inkscape:cx="6.9940728"
     inkscape:cy="7"
     inkscape:window-width="3440"
     inkscape:window-height="1377"
     inkscape:window-x="-8"
     inkscape:window-y="-8"
     inkscape:window-maximized="1"
     inkscape:current-layer="svg7" />
  <path
     style="color:#000000;fill:#99a2b3;stroke-linecap:round;stroke-linejoin:round;-inkscape-stroke:none"
     d="M 3.5,3 A 0.5,0.5 0 0 0 3,3.5 0.5,0.5 0 0 0 3.5,4 h 4.6660156 a 0.5,0.5 0 0 0 0.5,-0.5 0.5,0.5 0 0 0 -0.5,-0.5 z"
     id="path1" />
  <path
     style="color:#000000;fill:#99a2b3;stroke-linecap:round;stroke-linejoin:round;-inkscape-stroke:none"
     d="m 3.5,5.3339844 a 0.5,0.5 0 0 0 -0.5,0.5 0.5,0.5 0 0 0 0.5,0.5 h 7 a 0.5,0.5 0 0 0 0.5,-0.5 0.5,0.5 0 0 0 -0.5,-0.5 z"
     id="path2" />
  <path
     style="color:#000000;fill:#99a2b3;stroke-linecap:round;stroke-linejoin:round;-inkscape-stroke:none"
     d="m 7.5820312,7.6660156 a 0.5,0.5 0 0 0 -0.5,0.5 0.5,0.5 0 0 0 0.5,0.5 h 2.9160158 a 0.5,0.5 0 0 0 0.5,-0.5 0.5,0.5 0 0 0 -0.5,-0.5 z"
     id="path3" />
  <path
     style="color:#000000;fill:#99a2b3;stroke-linecap:round;stroke-linejoin:round;-inkscape-stroke:none"
     d="m 7.5820312,10 a 0.5,0.5 0 0 0 -0.5,0.5 0.5,0.5 0 0 0 0.5,0.5 h 2.9160158 a 0.5,0.5 0 0 0 0.5,-0.5 0.5,0.5 0 0 0 -0.5,-0.5 z"
     id="path4" />
  <path
     style="color:#000000;fill:#99a2b3;stroke-linecap:round;stroke-linejoin:round;-inkscape-stroke:none"
     d="m 1.5175781,0.66601562 c -0.4635185,0 -0.84960935,0.38804398 -0.84960935,0.85156248 V 12.484375 c 0,0.463519 0.38609085,0.849609 0.84960935,0.849609 H 12.484375 c 0.463479,0 0.849609,-0.386263 0.849609,-0.849609 V 3.3535156 c 0,-0.2249709 -0.08849,-0.4421486 -0.248046,-0.6015625 L 11.25,0.91601563 a 0.50005,0.50005 0 0 0 -0.002,0 C 11.088855,0.7569694 10.873673,0.66601562 10.648438,0.66601562 Z M 1.6679687,1.6660156 h 8.9160153 l 1.75,1.7480469 V 12.333984 H 1.6679687 Z"
     id="path5" />
  <path
     style="color:#000000;fill:#99a2b3;stroke-linecap:round;stroke-linejoin:round;-inkscape-stroke:none"
     d="m 3.5,7.6660156 a 0.50005,0.50005 0 0 0 -0.5,0.5 V 10.5 A 0.50005,0.50005 0 0 0 3.5,11 h 1.75 a 0.50005,0.50005 0 0 0 0.5,-0.5 V 8.1660156 a 0.50005,0.50005 0 0 0 -0.5,-0.5 z m 0.5,1 H 4.75 V 10 H 4 Z"
     id="path6" />
  <path
     style="color:#000000;fill:#99a2b3;stroke-linecap:round;stroke-linejoin:round;-inkscape-stroke:none"
     d="M 10.5,0.66601562 A 0.5,0.5 0 0 0 10,1.1660156 v 1.984375 C 10,3.6139092 10.386091,4 10.849609,4 h 1.984375 a 0.5,0.5 0 0 0 0.5,-0.5 0.5,0.5 0 0 0 -0.5,-0.5 H 11 V 1.1660156 A 0.5,0.5 0 0 0 10.5,0.66601562 Z"
     id="path7" />
  <defs
     id="defs7">
    <clipPath
       clipPathUnits="userSpaceOnUse"
       id="clipPath8">
      <g
         id="g9">
        <rect
           width="14"
           height="14"
           fill="#ffffff"
           id="rect8"
           x="0"
           y="0" />
      </g>
    </clipPath>
    <clipPath
       clipPathUnits="userSpaceOnUse"
       id="clipPath9">
      <g
         id="g10">
        <rect
           width="14"
           height="14"
           fill="#ffffff"
           id="rect9"
           x="0"
           y="0" />
      </g>
    </clipPath>
    <clipPath
       clipPathUnits="userSpaceOnUse"
       id="clipPath10">
      <g
         id="g11">
        <rect
           width="14"
           height="14"
           fill="#ffffff"
           id="rect10"
           x="0"
           y="0" />
      </g>
    </clipPath>
    <clipPath
       clipPathUnits="userSpaceOnUse"
       id="clipPath11">
      <g
         id="g12">
        <rect
           width="14"
           height="14"
           fill="#ffffff"
           id="rect11"
           x="0"
           y="0" />
      </g>
    </clipPath>
    <clipPath
       clipPathUnits="userSpaceOnUse"
       id="clipPath12">
      <g
         id="g13">
        <rect
           width="14"
           height="14"
           fill="#ffffff"
           id="rect12"
           x="0"
           y="0" />
      </g>
    </clipPath>
    <clipPath
       clipPathUnits="userSpaceOnUse"
       id="clipPath13">
      <g
         id="g14">
        <rect
           width="14"
           height="14"
           fill="#ffffff"
           id="rect13"
           x="0"
           y="0" />
      </g>
    </clipPath>
    <clipPath
       clipPathUnits="userSpaceOnUse"
       id="clipPath14">
      <g
         id="g15">
        <rect
           width="14"
           height="14"
           fill="#ffffff"
           id="rect14"
           x="0"
           y="0" />
      </g>
    </clipPath>
  </defs>
</svg>
