<?xml version="1.0" encoding="UTF-8" standalone="no"?>
<svg
   width="15"
   height="14"
   viewBox="0 0 15 14"
   fill="none"
   version="1.1"
   id="svg2"
   sodipodi:docname="location.svg"
   inkscape:version="1.3.2 (091e20e, 2023-11-25, custom)"
   xmlns:inkscape="http://www.inkscape.org/namespaces/inkscape"
   xmlns:sodipodi="http://sodipodi.sourceforge.net/DTD/sodipodi-0.dtd"
   xmlns="http://www.w3.org/2000/svg"
   xmlns:svg="http://www.w3.org/2000/svg">
  <defs
     id="defs2" />
  <sodipodi:namedview
     id="namedview2"
     pagecolor="#ffffff"
     bordercolor="#cccccc"
     borderopacity="1"
     inkscape:showpageshadow="0"
     inkscape:pageopacity="1"
     inkscape:pagecheckerboard="0"
     inkscape:deskcolor="#d1d1d1"
     inkscape:zoom="84.357143"
     inkscape:cx="7.5038103"
     inkscape:cy="7"
     inkscape:window-width="3440"
     inkscape:window-height="1377"
     inkscape:window-x="-8"
     inkscape:window-y="-8"
     inkscape:window-maximized="1"
     inkscape:current-layer="svg2" />
  <path
     style="color:#000000;fill:#99a2b3;-inkscape-stroke:none"
     d="m 7.4980469,0.41601563 c -2.9826554,0 -5.4160157,2.43531137 -5.4160156,5.41796877 0,1.7413349 1.3003118,3.4707593 2.5019531,4.9414066 1.2016413,1.470647 2.3984375,2.601562 2.3984375,2.601562 l 0.515625,0.490235 0.515625,-0.490235 c 0,0 1.1967885,-1.130915 2.3984371,-2.601562 1.201649,-1.4706473 2.503907,-3.2000688 2.503907,-4.9414066 0,-2.982669 -2.435339,-5.41796877 -5.4179691,-5.41796877 z m 0,1.49999997 c 2.1719647,0 3.9179691,1.7459829 3.9179691,3.9179688 0,0.8360096 -1.032364,2.6071497 -2.1640629,3.9921875 C 8.3776166,10.896235 7.851878,11.380341 7.4980469,11.728516 7.1441374,11.380256 6.6203228,10.89611 5.7460937,9.8261719 4.6144024,8.4411342 3.5820312,6.6699969 3.5820313,5.8339844 c 0,-2.1719975 1.7440161,-3.9179688 3.9160156,-3.9179688 z"
     id="path1" />
  <g
     id="path2">
    <path
       style="color:#000000;fill:#99a2b3;stroke-linecap:round;stroke-linejoin:round;-inkscape-stroke:none"
       d="m 7.5013,6.41667 c 0.32218,0 0.58334,-0.26116 0.58334,-0.58334 C 8.08464,5.51117 7.82348,5.25 7.5013,5.25 c -0.32217,0 -0.58333,0.26117 -0.58333,0.58333 0,0.32218 0.26116,0.58334 0.58333,0.58334 z"
       id="path3" />
    <path
       style="color:#000000;fill:#99a2b3;stroke-linecap:round;stroke-linejoin:round;-inkscape-stroke:none"
       d="m 7.5019531,4.5 c -0.7274987,0 -1.3339844,0.6064986 -1.3339844,1.3339844 0,0.7274806 0.6065012,1.3320312 1.3339844,1.3320312 0.7274807,0 1.3320313,-0.6045506 1.3320313,-1.3320312 C 8.8339844,5.1064986 8.2294493,4.5 7.5019531,4.5 Z m 0,1.1660156 c 0.083144,0 0.1660156,0.084848 0.1660156,0.1679688 C 7.6679687,5.9171508 7.5851125,6 7.5019531,6 7.4188163,6 7.3339844,5.9171508 7.3339844,5.8339844 c 0,-0.083121 0.084847,-0.1679688 0.1679687,-0.1679688 z"
       id="path4" />
  </g>
</svg>
