<?xml version="1.0" encoding="UTF-8" standalone="no"?>
<svg
   width="20"
   height="21"
   viewBox="0 0 20 21"
   fill="none"
   version="1.1"
   id="svg1"
   sodipodi:docname="login.svg"
   inkscape:version="1.3.2 (091e20e, 2023-11-25, custom)"
   xmlns:inkscape="http://www.inkscape.org/namespaces/inkscape"
   xmlns:sodipodi="http://sodipodi.sourceforge.net/DTD/sodipodi-0.dtd"
   xmlns="http://www.w3.org/2000/svg"
   xmlns:svg="http://www.w3.org/2000/svg">
  <defs
     id="defs1" />
  <sodipodi:namedview
     id="namedview1"
     pagecolor="#ffffff"
     bordercolor="#cccccc"
     borderopacity="1"
     inkscape:showpageshadow="0"
     inkscape:pageopacity="1"
     inkscape:pagecheckerboard="0"
     inkscape:deskcolor="#d1d1d1"
     inkscape:zoom="56.238095"
     inkscape:cx="9.9932261"
     inkscape:cy="10.5"
     inkscape:window-width="3440"
     inkscape:window-height="1377"
     inkscape:window-x="-8"
     inkscape:window-y="-8"
     inkscape:window-maximized="1"
     inkscape:current-layer="svg1" />
  <path
     style="color:#000000;fill:#ffffff;stroke-linecap:round;stroke-linejoin:round;-inkscape-stroke:none"
     d="m 7.5,2.5 c -1.6509292,0 -3,1.3490708 -3,3 v 0.8339844 a 0.5,0.5 0 0 0 0.5,0.5 0.5,0.5 0 0 0 0.5,-0.5 V 5.5 c 0,-1.110488 0.889512,-2 2,-2 H 15 c 1.110476,0 2,0.8895144 2,2 v 10 c 0,1.110474 -0.889526,2 -2,2 H 7.5 c -1.1104856,0 -2,-0.889524 -2,-2 v -0.833984 a 0.5,0.5 0 0 0 -0.5,-0.5 0.5,0.5 0 0 0 -0.5,0.5 V 15.5 c 0,1.650921 1.3490684,3 3,3 H 15 c 1.650924,0 3,-1.349076 3,-3 v -10 c 0,-1.6509316 -1.349079,-3 -3,-3 z M 10,6.6660156 A 0.5,0.5 0 0 0 9.6464844,6.8125 a 0.5,0.5 0 0 0 0,0.7070312 L 12.126953,10 H 2.5 A 0.5,0.5 0 0 0 2,10.5 0.5,0.5 0 0 0 2.5,11 h 9.626953 l -2.4804686,2.480469 a 0.5,0.5 0 0 0 0,0.707031 0.5,0.5 0 0 0 0.7070316,0 L 13.6875,10.853516 a 0.50005,0.50005 0 0 0 0,-0.707032 L 10.353516,6.8125 A 0.5,0.5 0 0 0 10,6.6660156 Z"
     id="path1" />
</svg>
