<?xml version="1.0" encoding="UTF-8" standalone="no"?>
<svg
   width="22"
   height="22"
   viewBox="0 0 22 22"
   fill="none"
   version="1.1"
   id="svg1"
   sodipodi:docname="phone.svg"
   inkscape:version="1.3.2 (091e20e, 2023-11-25, custom)"
   xmlns:inkscape="http://www.inkscape.org/namespaces/inkscape"
   xmlns:sodipodi="http://sodipodi.sourceforge.net/DTD/sodipodi-0.dtd"
   xmlns="http://www.w3.org/2000/svg"
   xmlns:svg="http://www.w3.org/2000/svg">
  <defs
     id="defs1" />
  <sodipodi:namedview
     id="namedview1"
     pagecolor="#ffffff"
     bordercolor="#cccccc"
     borderopacity="1"
     inkscape:showpageshadow="0"
     inkscape:pageopacity="1"
     inkscape:pagecheckerboard="0"
     inkscape:deskcolor="#d1d1d1"
     inkscape:zoom="53.681818"
     inkscape:cx="10.990686"
     inkscape:cy="11"
     inkscape:window-width="3440"
     inkscape:window-height="1377"
     inkscape:window-x="-8"
     inkscape:window-y="-8"
     inkscape:window-maximized="1"
     inkscape:current-layer="svg1" />
  <path
     style="color:#000000;fill:#2b3239;stroke-linecap:round;stroke-linejoin:round;-inkscape-stroke:none"
     d="M 3.21875,1.3339844 C 2.4929882,1.3339796 1.8722482,1.7454676 1.5898437,2.3515625 1.3074393,2.9576574 1.2778591,3.7055237 1.3984375,4.5644531 1.6395943,6.282312 2.5233248,8.4778294 3.9375,10.724609 c 2.8283504,4.49356 7.805448,9.187461 14.171875,9.927735 1.228257,0.142796 2.254865,-0.851831 2.345703,-2.0625 l 0.205078,-2.734375 c 0.08462,-1.129424 -0.642717,-2.172193 -1.730469,-2.451172 l -3.193359,-0.818359 c -0.593157,-0.15198 -1.223599,-0.05601 -1.746094,0.265625 l -1.292968,0.794921 C 10.837114,12.297035 9.0987302,10.238567 8.3242188,9.1699219 L 9.390625,7.5292969 C 9.8127952,6.8797935 9.8903967,6.0610576 9.5996094,5.3417969 L 8.6132813,2.9023438 C 8.2723965,2.0590499 7.4743033,1.4877119 6.5722656,1.4550781 L 3.2363281,1.3339844 a 0.50005,0.50005 0 0 0 -0.017578,0 z M 3.1992188,2.3320313 6.5351562,2.453125 c 0.503241,0.018206 0.9526959,0.3351539 1.1503907,0.8242188 L 8.671875,5.7167969 C 8.8402272,6.133215 8.7954635,6.6109394 8.5527344,6.984375 L 7.2890625,8.9277344 a 0.50005,0.50005 0 0 0 0.00781,0.5585937 c 0.7818997,1.1228189 2.813581,3.6527949 5.066406,5.1933599 a 0.50005,0.50005 0 0 0 0.544922,0.01172 l 1.607422,-0.988281 c 0.294305,-0.181166 0.641614,-0.233258 0.972656,-0.148437 l 3.19336,0.818359 c 0.611447,0.15682 1.03005,0.744476 0.980468,1.40625 l -0.205078,2.734375 C 19.403869,19.222201 18.86115,19.73416 18.224609,19.660156 12.284308,18.969431 7.4980729,14.50157 4.7851562,10.191406 3.4286979,8.0363244 2.5984162,5.9198757 2.3886719,4.4257812 2.2837997,3.678734 2.3454697,3.0967059 2.4960938,2.7734375 2.6467178,2.4501691 2.8006404,2.3339816 3.21875,2.3339844 Z"
     id="path1" />
</svg>
