<?xml version="1.0" encoding="UTF-8" standalone="no"?>
<svg
   width="18"
   height="18"
   viewBox="0 0 18 18"
   fill="none"
   version="1.1"
   id="svg1"
   sodipodi:docname="search.svg"
   inkscape:version="1.3.2 (091e20e, 2023-11-25, custom)"
   xmlns:inkscape="http://www.inkscape.org/namespaces/inkscape"
   xmlns:sodipodi="http://sodipodi.sourceforge.net/DTD/sodipodi-0.dtd"
   xmlns="http://www.w3.org/2000/svg"
   xmlns:svg="http://www.w3.org/2000/svg">
  <defs
     id="defs1" />
  <sodipodi:namedview
     id="namedview1"
     pagecolor="#ffffff"
     bordercolor="#cccccc"
     borderopacity="1"
     inkscape:showpageshadow="0"
     inkscape:pageopacity="1"
     inkscape:pagecheckerboard="0"
     inkscape:deskcolor="#d1d1d1"
     inkscape:zoom="65.611111"
     inkscape:cx="8.9923793"
     inkscape:cy="9"
     inkscape:window-width="3440"
     inkscape:window-height="1377"
     inkscape:window-x="-8"
     inkscape:window-y="-8"
     inkscape:window-maximized="1"
     inkscape:current-layer="svg1" />
  <path
     style="color:#000000;fill:#acb8c5;stroke-linecap:round;stroke-linejoin:round;-inkscape-stroke:none"
     d="m 12.396484,12.396484 a 0.5,0.5 0 0 0 0,0.707032 l 3,3 a 0.5,0.5 0 0 0 0.707032,0 0.5,0.5 0 0 0 0,-0.707032 l -3,-3 a 0.5,0.5 0 0 0 -0.707032,0 z"
     id="Vector" />
  <path
     style="color:#000000;fill:#acb8c5;stroke-linecap:round;stroke-linejoin:round;-inkscape-stroke:none"
     d="m 8.25,1.75 c -3.5839262,0 -6.5,2.9160738 -6.5,6.5 0,3.583917 2.9160728,6.5 6.5,6.5 1.79509,0 3.425404,-0.730857 4.601563,-1.910156 C 14.023695,11.664571 14.75,10.038845 14.75,8.25 c 0,-3.5839272 -2.916083,-6.5 -6.5,-6.5 z m 0,1 c 3.043476,0 5.5,2.4565138 5.5,5.5 0,1.5191119 -0.612603,2.88924 -1.605469,3.884766 C 11.148292,13.133665 9.7744068,13.75 8.25,13.75 c -3.0434862,0 -5.5,-2.456524 -5.5,-5.5 0,-3.0434872 2.4565128,-5.5 5.5,-5.5 z"
     id="Vector_2" />
  <path
     style="color:#000000;fill:#acb8c5;stroke-linecap:round;stroke-linejoin:round;-inkscape-stroke:none"
     d="m 12.396484,12.396484 a 0.5,0.5 0 0 0 0,0.707032 l 3,3 a 0.5,0.5 0 0 0 0.707032,0 0.5,0.5 0 0 0 0,-0.707032 l -3,-3 a 0.5,0.5 0 0 0 -0.707032,0 z"
     id="path1" />
  <path
     style="color:#000000;fill:#acb8c5;stroke-linecap:round;stroke-linejoin:round;-inkscape-stroke:none"
     d="m 8.25,1.75 c -3.5839262,0 -6.5,2.9160738 -6.5,6.5 0,3.583917 2.9160728,6.5 6.5,6.5 1.79509,0 3.425404,-0.730857 4.601563,-1.910156 C 14.023695,11.664571 14.75,10.038845 14.75,8.25 c 0,-3.5839272 -2.916083,-6.5 -6.5,-6.5 z m 0,1 c 3.043476,0 5.5,2.4565138 5.5,5.5 0,1.5191119 -0.612603,2.88924 -1.605469,3.884766 C 11.148292,13.133665 9.7744068,13.75 8.25,13.75 c -3.0434862,0 -5.5,-2.456524 -5.5,-5.5 0,-3.0434872 2.4565128,-5.5 5.5,-5.5 z"
     id="path2" />
</svg>
