<?xml version="1.0" encoding="UTF-8" standalone="no"?>
<svg
   width="18"
   height="19"
   viewBox="0 0 18 19"
   fill="none"
   version="1.1"
   id="svg1"
   sodipodi:docname="search-views.svg"
   inkscape:version="1.3.2 (091e20e, 2023-11-25, custom)"
   xmlns:inkscape="http://www.inkscape.org/namespaces/inkscape"
   xmlns:sodipodi="http://sodipodi.sourceforge.net/DTD/sodipodi-0.dtd"
   xmlns="http://www.w3.org/2000/svg"
   xmlns:svg="http://www.w3.org/2000/svg">
  <defs
     id="defs1" />
  <sodipodi:namedview
     id="namedview1"
     pagecolor="#ffffff"
     bordercolor="#cccccc"
     borderopacity="1"
     inkscape:showpageshadow="0"
     inkscape:pageopacity="1"
     inkscape:pagecheckerboard="0"
     inkscape:deskcolor="#d1d1d1"
     inkscape:zoom="62.157895"
     inkscape:cx="8.9932261"
     inkscape:cy="9.5"
     inkscape:window-width="3440"
     inkscape:window-height="1377"
     inkscape:window-x="-8"
     inkscape:window-y="-8"
     inkscape:window-maximized="1"
     inkscape:current-layer="svg1" />
  <path
     style="color:#000000;fill:#99a2b3;stroke-linecap:round;stroke-linejoin:round;-inkscape-stroke:none"
     d="M 8.0625,1.25 C 4.0328043,1.25 0.75,4.5328043 0.75,8.5625 c 0,4.029722 3.2828084,7.3125 7.3125,7.3125 1.7399999,0 3.275877,-0.696835 4.533203,-1.716797 l 3.373047,3.373047 a 0.75,0.75 0 0 0 1.0625,0 0.75,0.75 0 0 0 0,-1.0625 L 13.658203,13.095703 C 14.678165,11.838377 15.375,10.3025 15.375,8.5625 15.375,4.5328084 12.092222,1.25 8.0625,1.25 Z m 0,1.5 c 3.21907,0 5.8125,2.5934588 5.8125,5.8125 0,3.219075 -2.593425,5.8125 -5.8125,5.8125 C 4.8434588,14.375 2.25,11.78157 2.25,8.5625 2.25,5.343463 4.843463,2.75 8.0625,2.75 Z M 8.2617188,7.625 A 0.75,0.75 0 0 0 7.7324219,7.84375 L 7.71875,7.8574219 a 0.75,0.75 0 0 0 0,1.0605469 0.75,0.75 0 0 0 1.0625,0 L 8.7929688,8.90625 a 0.75,0.75 0 0 0 0,-1.0625 0.75,0.75 0 0 0 -0.53125,-0.21875 z m 3.0019532,0 a 0.75,0.75 0 0 0 -0.53125,0.21875 l -0.01172,0.011719 a 0.75,0.75 0 0 0 -0.002,1.0605469 0.75,0.75 0 0 0 1.060547,0.00195 l 0.01172,-0.011719 a 0.75,0.75 0 0 0 0.002,-1.0605469 A 0.75,0.75 0 0 0 11.263672,7.625 Z m -6.5312501,0.21875 -0.011719,0.013672 a 0.75,0.75 0 0 0 -0.00195,1.0605469 0.75,0.75 0 0 0 1.0605469,0 L 5.7929687,8.90625 a 0.75,0.75 0 0 0 0,-1.0605469 0.75,0.75 0 0 0 -1.0605468,-0.00195 z"
     id="path1" />
</svg>
