<?xml version="1.0" encoding="UTF-8" standalone="no"?>
<svg
   width="14"
   height="14"
   viewBox="0 0 14 14"
   fill="none"
   version="1.1"
   id="svg2"
   sodipodi:docname="share.svg"
   inkscape:version="1.3.2 (091e20e, 2023-11-25, custom)"
   xmlns:inkscape="http://www.inkscape.org/namespaces/inkscape"
   xmlns:sodipodi="http://sodipodi.sourceforge.net/DTD/sodipodi-0.dtd"
   xmlns="http://www.w3.org/2000/svg"
   xmlns:svg="http://www.w3.org/2000/svg">
  <defs
     id="defs2" />
  <sodipodi:namedview
     id="namedview2"
     pagecolor="#ffffff"
     bordercolor="#cccccc"
     borderopacity="1"
     inkscape:showpageshadow="0"
     inkscape:pageopacity="1"
     inkscape:pagecheckerboard="0"
     inkscape:deskcolor="#d1d1d1"
     inkscape:zoom="84.357143"
     inkscape:cx="6.9940728"
     inkscape:cy="7"
     inkscape:window-width="3440"
     inkscape:window-height="1377"
     inkscape:window-x="-8"
     inkscape:window-y="-8"
     inkscape:window-maximized="1"
     inkscape:current-layer="svg2" />
  <path
     style="color:#000000;fill:#ffffff;stroke-linecap:round;stroke-linejoin:round;-inkscape-stroke:none"
     d="m 8.75,1.25 a 0.5,0.5 0 0 0 -0.5,0.5 0.5,0.5 0 0 0 0.5,0.5 h 2.292969 L 6.6464844,6.6464844 a 0.5,0.5 0 0 0 0,0.7070312 0.5,0.5 0 0 0 0.7070312,0 L 11.75,2.9570313 V 5.25 a 0.5,0.5 0 0 0 0.5,0.5 0.5,0.5 0 0 0 0.5,-0.5 V 1.75 A 0.5,0.5 0 0 0 12.712891,1.5585937 0.5,0.5 0 0 0 12.603516,1.3964844 0.5,0.5 0 0 0 12.25,1.25 Z"
     id="path1" />
  <path
     style="color:#000000;fill:#ffffff;stroke-linecap:round;-inkscape-stroke:none"
     d="M 2.9160156,1.25 C 2.0014621,1.25 1.25,2.0014621 1.25,2.9160156 V 11.083984 C 1.25,11.998573 2.0014776,12.75 2.9160156,12.75 H 11.083984 C 11.998557,12.75 12.75,11.998557 12.75,11.083984 V 7.5839844 a 0.5,0.5 0 0 0 -0.5,-0.5 0.5,0.5 0 0 0 -0.5,0.5 V 11.083984 C 11.75,11.45821 11.45821,11.75 11.083984,11.75 H 2.9160156 C 2.541875,11.75 2.25,11.458195 2.25,11.083984 V 2.9160156 C 2.25,2.5418905 2.5418905,2.25 2.9160156,2.25 h 3.5 a 0.5,0.5 0 0 0 0.5,-0.5 0.5,0.5 0 0 0 -0.5,-0.5 z"
     id="path2" />
</svg>
