<?xml version="1.0" encoding="UTF-8" standalone="no"?>
<svg
   width="29"
   height="29"
   viewBox="0 0 29 29"
   fill="none"
   version="1.1"
   id="svg3"
   sodipodi:docname="user-circle.svg"
   inkscape:version="1.3.2 (091e20e, 2023-11-25, custom)"
   xmlns:inkscape="http://www.inkscape.org/namespaces/inkscape"
   xmlns:sodipodi="http://sodipodi.sourceforge.net/DTD/sodipodi-0.dtd"
   xmlns="http://www.w3.org/2000/svg"
   xmlns:svg="http://www.w3.org/2000/svg">
  <defs
     id="defs3" />
  <sodipodi:namedview
     id="namedview3"
     pagecolor="#ffffff"
     bordercolor="#cccccc"
     borderopacity="1"
     inkscape:showpageshadow="0"
     inkscape:pageopacity="1"
     inkscape:pagecheckerboard="0"
     inkscape:deskcolor="#d1d1d1"
     inkscape:zoom="40.724138"
     inkscape:cx="14.487722"
     inkscape:cy="14.5"
     inkscape:window-width="3440"
     inkscape:window-height="1377"
     inkscape:window-x="-8"
     inkscape:window-y="-8"
     inkscape:window-maximized="1"
     inkscape:current-layer="svg3" />
  <path
     style="color:#000000;fill:#676d73;stroke-linecap:round;stroke-linejoin:round;-inkscape-stroke:none"
     d="M 14.5,2.0410156 C 7.6288769,2.0410156 2.0429688,7.6288302 2.0429688,14.5 c 0,6.871142 5.5859114,12.458984 12.4570312,12.458984 6.871138,0 12.458984,-5.587837 12.458984,-12.458984 C 26.958984,7.6288253 21.371142,2.0410156 14.5,2.0410156 Z M 14.5,3.625 c 6.015445,0 10.875,4.8595276 10.875,10.875 0,6.01544 -4.859551,10.875 -10.875,10.875 C 8.4845727,25.375 3.625,20.515445 3.625,14.5 3.625,8.4845226 8.484576,3.625 14.5,3.625 Z"
     id="path1" />
  <path
     style="color:#000000;fill:#676d73;stroke-linecap:round;stroke-linejoin:round;-inkscape-stroke:none"
     d="m 14.5,17.791016 c -3.344859,0 -5.7473515,0.87331 -7.3085938,1.765625 C 5.630164,20.448955 4.859375,21.416016 4.859375,21.416016 a 0.79166502,0.79166502 0 0 0 0.1347656,1.111328 0.79166502,0.79166502 0 0 0 1.1113281,-0.136719 c 0,0 0.5298646,-0.693253 1.8730469,-1.460938 C 9.3216979,20.162003 11.428215,19.375 14.5,19.375 c 3.071811,0 5.178277,0.787002 6.521484,1.554687 1.343208,0.767686 1.873047,1.460938 1.873047,1.460938 a 0.79166502,0.79166502 0 0 0 1.111328,0.136719 0.79166502,0.79166502 0 0 0 0.134766,-1.111328 c 0,0 -0.77272,-0.967063 -2.333984,-1.859375 C 20.245376,18.664328 17.844882,17.791016 14.5,17.791016 Z"
     id="path2" />
  <path
     style="color:#000000;fill:#676d73;stroke-linecap:round;stroke-linejoin:round;-inkscape-stroke:none"
     d="m 14.5,6.7089844 c -2.360924,0 -4.291016,1.9302072 -4.291016,4.2910156 0,2.360816 1.930095,4.291016 4.291016,4.291016 2.360844,0 4.291016,-1.930172 4.291016,-4.291016 0,-2.3608357 -1.93017,-4.2910156 -4.291016,-4.2910156 z m 0,1.5820312 c 1.50515,0 2.708984,1.203844 2.708984,2.7089844 0,1.505153 -1.203831,2.708984 -2.708984,2.708984 -1.505275,0 -2.708984,-1.203804 -2.708984,-2.708984 0,-1.5051677 1.203712,-2.7089844 2.708984,-2.7089844 z"
     id="path3" />
</svg>
