<svg width="32" height="32" viewBox="0 0 32 32" fill="none" xmlns="http://www.w3.org/2000/svg">
<g clip-path="url(#clip0_175_259)">
<path fill-rule="evenodd" clip-rule="evenodd" d="M16.0616 1.3335C19.9688 1.33496 23.6361 2.84867 26.3935 5.59633C29.1514 8.34391 30.6691 11.9956 30.6667 15.8801C30.6632 23.8941 24.1108 30.4152 16.0612 30.4152H16.0553C13.6112 30.4142 11.2091 29.804 9.07593 28.6458L1.33333 30.6668L3.40558 23.1345C2.12771 20.9307 1.45517 18.4299 1.45612 15.868C1.45909 7.85355 8.01157 1.3335 16.0616 1.3335ZM20.2304 17.668C20.5652 17.7892 22.3592 18.6675 22.7243 18.8495C22.7948 18.8846 22.8608 18.9164 22.9221 18.9458C23.1776 19.0688 23.3501 19.1519 23.4236 19.2743C23.5147 19.4257 23.5147 20.1532 23.2106 21.0014C22.9065 21.8497 21.4488 22.6238 20.7475 22.7281C20.1184 22.8217 19.323 22.8605 18.4487 22.5841C17.9185 22.4167 17.2391 22.1936 16.3682 21.8192C12.9456 20.3483 10.633 17.0465 10.1974 16.4245C10.167 16.3812 10.1458 16.3509 10.134 16.3351L10.1326 16.3333C9.94486 16.0847 8.64363 14.3616 8.64363 12.5781C8.64363 10.906 9.46867 10.0294 9.84894 9.6254C9.87523 9.59749 9.89936 9.57179 9.92095 9.54826C10.2558 9.18448 10.6511 9.0938 10.8942 9.0938C11.1374 9.0938 11.3811 9.09573 11.5936 9.10643C11.6198 9.10774 11.6471 9.10752 11.6754 9.10741C11.8882 9.1061 12.1532 9.10449 12.4148 9.72965C12.5158 9.97115 12.6638 10.3296 12.8197 10.7074C13.1333 11.4671 13.4792 12.3049 13.5401 12.4264C13.6312 12.6082 13.6921 12.8202 13.5703 13.0627C13.5518 13.0995 13.5346 13.1342 13.5183 13.1673C13.4271 13.3523 13.3598 13.4888 13.2053 13.6685C13.1446 13.7391 13.0818 13.815 13.0191 13.8912C12.8933 14.0436 12.7675 14.1961 12.6579 14.3048C12.4752 14.4857 12.2851 14.6822 12.4981 15.0459C12.7111 15.4092 13.4436 16.5985 14.5284 17.5617C15.6942 18.597 16.7077 19.0344 17.2217 19.2563C17.3221 19.2997 17.4036 19.3348 17.4632 19.3645C17.8278 19.5464 18.0408 19.5163 18.2537 19.2738C18.4667 19.0313 19.166 18.2136 19.4093 17.8498C19.6524 17.4861 19.8962 17.5467 20.2304 17.668Z" fill="#575B60"/>
</g>
<defs>
<clipPath id="clip0_175_259">
<rect width="32" height="32" fill="white"/>
</clipPath>
</defs>
</svg>
