<svg width="20" height="20" viewBox="0 0 20 20" fill="none" xmlns="http://www.w3.org/2000/svg">
<path d="M3.415 16.585C3.7052 16.8752 4.04972 17.1055 4.42892 17.2626C4.80812 17.4197 5.21455 17.5006 5.625 17.5006M3.415 16.585C4.00105 17.171 4.7962 17.5006 5.625 17.5006M3.415 16.585C2.82895 15.999 2.5 15.2037 2.5 14.375V3.4375C2.5 2.92 2.92 2.5 3.4375 2.5H7.8125C8.33 2.5 8.75 2.92 8.75 3.4375V6.83084M5.625 17.5006C6.03545 17.5006 6.44188 17.4197 6.82108 17.2626C7.20028 17.1055 7.54481 16.8752 7.835 16.585M5.625 17.5006C6.4538 17.5006 7.24895 17.171 7.835 16.585M5.625 17.5006L16.5625 17.5C17.08 17.5 17.5 17.08 17.5 16.5625V12.1875C17.5 11.67 17.08 11.25 16.5625 11.25H13.1691M8.75 6.83084V14.375C8.75 15.2037 8.42105 15.999 7.835 16.585M8.75 6.83084L11.15 4.43084C11.515 4.065 12.1083 4.065 12.475 4.43084L15.5684 7.525C15.935 7.89166 15.935 8.485 15.5684 8.85L13.1691 11.25M7.835 16.585L13.1691 11.25M5.625 14.375H5.63166V14.3816H5.625V14.375Z" stroke="#81A6CA" stroke-width="1.5" stroke-linecap="round" stroke-linejoin="round"/>
</svg>
