<svg width="20" height="20" viewBox="0 0 20 20" fill="none" xmlns="http://www.w3.org/2000/svg">
<g clip-path="url(#clip0_379_29130)">
<path d="M8.39805 2.63601C8.44797 2.08706 8.90822 1.66675 9.45939 1.66675H10.5432C11.0944 1.66675 11.5546 2.08706 11.6046 2.63601C11.6456 3.08668 11.9699 3.45461 12.3936 3.61341C12.5026 3.65424 12.6102 3.69778 12.7165 3.74394C13.1357 3.92616 13.6289 3.89123 13.9801 3.59856C14.4141 3.23691 15.0522 3.26586 15.4516 3.66532L16.2166 4.43027C16.5975 4.81113 16.6251 5.41956 16.2802 5.83335C15.9931 6.17799 15.9663 6.66462 16.1594 7.06959C16.243 7.24496 16.3193 7.42446 16.388 7.60771C16.5468 8.03147 16.9147 8.35583 17.3654 8.39683C17.9143 8.44675 18.3346 8.907 18.3346 9.45816V10.542C18.3346 11.0932 17.9143 11.5534 17.3654 11.6033C16.9147 11.6443 16.5468 11.9687 16.388 12.3924C16.3263 12.5569 16.2585 12.7184 16.1848 12.8766C16.0057 13.2609 16.0347 13.7198 16.3061 14.0456C16.6363 14.4417 16.6099 15.0243 16.2452 15.389L15.3902 16.244C15.0256 16.6087 14.443 16.6351 14.0468 16.3049C13.7211 16.0335 13.2621 16.0045 12.8778 16.1836C12.7196 16.2572 12.5581 16.3251 12.3936 16.3867C11.9699 16.5456 11.6456 16.9135 11.6046 17.3642C11.5546 17.9131 11.0944 18.3334 10.5432 18.3334H9.45939C8.90822 18.3334 8.44797 17.9131 8.39805 17.3642C8.35705 16.9135 8.03269 16.5456 7.60894 16.3867C7.42569 16.3181 7.24619 16.2417 7.07083 16.1582C6.66585 15.9651 6.17922 15.9918 5.83457 16.279C5.42079 16.6238 4.81234 16.5962 4.43149 16.2154L3.66654 15.4504C3.26708 15.051 3.23814 14.4128 3.59979 13.9788C3.89246 13.6277 3.92738 13.1345 3.74516 12.7152C3.699 12.609 3.65547 12.5014 3.61464 12.3924C3.45584 11.9687 3.0879 11.6443 2.63723 11.6033C2.08829 11.5534 1.66797 11.0932 1.66797 10.542V9.45816C1.66797 8.907 2.08829 8.44675 2.63723 8.39683C3.08791 8.35583 3.45584 8.03148 3.61464 7.60772C3.66264 7.47966 3.71437 7.35343 3.76971 7.22916C3.96555 6.78938 3.933 6.26889 3.62481 5.89906C3.24899 5.44806 3.27907 4.78491 3.69418 4.36979L4.371 3.69296C4.78612 3.27785 5.44928 3.24776 5.90027 3.6236C6.2701 3.93179 6.79059 3.96433 7.23037 3.76849C7.35464 3.71315 7.48088 3.66141 7.60894 3.61342C8.03269 3.45461 8.35705 3.08669 8.39805 2.63601Z" stroke="#81A6CA" stroke-width="1.5" stroke-linecap="round" stroke-linejoin="round"/>
<path d="M12.5 10C12.5 11.3807 11.3807 12.5 10 12.5C8.61925 12.5 7.5 11.3807 7.5 10C7.5 8.61925 8.61925 7.5 10 7.5C11.3807 7.5 12.5 8.61925 12.5 10Z" stroke="#81A6CA" stroke-width="1.5" stroke-linecap="round" stroke-linejoin="round"/>
</g>
<defs>
<clipPath id="clip0_379_29130">
<rect width="20" height="20" fill="white"/>
</clipPath>
</defs>
</svg>
