<svg width="26" height="26" viewBox="0 0 26 26" fill="none" xmlns="http://www.w3.org/2000/svg">
<path d="M12.9993 23.8334C7.01626 23.8334 2.16602 18.9831 2.16602 13C2.16602 7.01693 7.01626 2.16669 12.9993 2.16669C18.9824 2.16669 23.8327 7.01693 23.8327 13C23.8327 18.9831 18.9824 23.8334 12.9993 23.8334Z" stroke="#81A6CA" stroke-width="1.5" stroke-linecap="round" stroke-linejoin="round"/>
<path d="M12.9993 17.3334C10.6061 17.3334 8.66602 15.3932 8.66602 13C8.66602 10.6068 10.6061 8.66669 12.9993 8.66669C15.3925 8.66669 17.3327 10.6068 17.3327 13C17.3327 15.3932 15.3925 17.3334 12.9993 17.3334Z" stroke="#81A6CA" stroke-width="1.5" stroke-linecap="round" stroke-linejoin="round"/>
<path d="M13 2.16669V8.66669" stroke="#81A6CA" stroke-width="1.5" stroke-linecap="round" stroke-linejoin="round"/>
<path d="M13 17.3333V23.8333" stroke="#81A6CA" stroke-width="1.5" stroke-linecap="round" stroke-linejoin="round"/>
<path d="M2.16602 13H8.66602" stroke="#81A6CA" stroke-width="1.5" stroke-linecap="round" stroke-linejoin="round"/>
<path d="M17.334 13H23.834" stroke="#81A6CA" stroke-width="1.5" stroke-linecap="round" stroke-linejoin="round"/>
<path d="M5.33984 5.33942L9.93604 9.93561" stroke="#81A6CA" stroke-width="1.5" stroke-linecap="round" stroke-linejoin="round"/>
<path d="M16.0645 16.0643L20.6606 20.6606" stroke="#81A6CA" stroke-width="1.5" stroke-linecap="round" stroke-linejoin="round"/>
<path d="M5.33984 20.6606L9.93604 16.0643" stroke="#81A6CA" stroke-width="1.5" stroke-linecap="round" stroke-linejoin="round"/>
<path d="M16.0645 9.93567L20.6606 5.33948" stroke="#81A6CA" stroke-width="1.5" stroke-linecap="round" stroke-linejoin="round"/>
</svg>
