<svg width="158" height="73" viewBox="0 0 158 73" fill="none" xmlns="http://www.w3.org/2000/svg">
<path d="M2.40242 60.3748H5.58033L4.44099 66.211C4.57698 65.9532 4.73624 65.7078 4.92123 65.471C5.10499 65.2354 5.36594 64.9616 5.70407 64.6508C5.97359 64.4152 6.31294 64.1735 6.72335 63.9268L7.15336 63.6851L7.48781 63.5248L13.4847 60.3735H19.9201L8.02563 66.5798L17.5973 72.6898H11.1141L6.11448 69.5065C5.4419 69.0773 4.97391 68.6271 4.70929 68.156C4.44467 67.6849 4.33686 67.1595 4.38586 66.5798L3.19384 72.6898H0L2.40365 60.3748H2.40242Z" fill="#2B3239"/>
<path d="M20.8316 60.375H24.0095L21.6059 72.69H18.428L20.8316 60.375Z" fill="#2B3239"/>
<path d="M25.1783 62.9798C25.2873 62.4223 25.5458 61.9167 25.9538 61.4603C26.3617 61.0052 26.8946 60.6488 27.5513 60.391C28.2655 60.1123 28.9356 60.0481 29.5617 60.1974C30.1865 60.3478 30.7439 60.7277 31.2315 61.3395L38.0357 69.6831L39.8525 60.375H43.0304L41.254 69.4747C41.0984 70.2677 40.8314 70.9189 40.4491 71.4283C40.0669 71.9377 39.572 72.336 38.9619 72.6259C38.2562 72.9688 37.5665 73.0761 36.8951 72.9478C36.2225 72.8195 35.6198 72.4335 35.0857 71.7897L28.2594 63.4781L26.4609 72.69H23.283L25.1783 62.9798Z" fill="#2B3239"/>
<path d="M43.9652 63.7643C43.9946 63.6151 44.0571 63.4399 44.1551 63.2426C44.2519 63.044 44.4013 62.8122 44.6022 62.5445C44.6684 62.4804 44.726 62.4138 44.7774 62.3447C44.8289 62.2757 44.8816 62.2078 44.9367 62.1437C45.3973 61.6405 45.8874 61.2557 46.408 60.988C46.9287 60.7204 47.5498 60.5391 48.2714 60.4417C48.4037 60.4207 48.5311 60.4071 48.6549 60.401C48.7786 60.396 48.9464 60.3936 49.1596 60.3936H62.2547L61.6556 63.4646H47.2031L46.0013 69.6227H57.2759L57.5797 68.0638H52.0215L52.6205 64.9927H61.3567L60.6082 68.8272C60.5065 69.3514 60.3093 69.841 60.0177 70.2949C59.7261 70.75 59.2973 71.2014 58.7313 71.6504C58.5145 71.8317 58.2989 71.9846 58.0833 72.108C57.8676 72.2313 57.6336 72.3349 57.3837 72.4212C57.1326 72.5063 56.8618 72.5717 56.5715 72.6136C56.2811 72.6568 55.954 72.6827 55.5889 72.6938H46.805C46.3468 72.6938 45.9462 72.6642 45.6007 72.605C45.2552 72.5458 44.9489 72.4521 44.6819 72.3238C44.4136 72.1955 44.1747 72.0266 43.9664 71.8181C43.7569 71.6097 43.5585 71.3556 43.3735 71.0559C43.1566 70.6921 43.0182 70.3221 42.9594 69.9483C42.8994 69.5734 42.9128 69.1615 43.001 68.7125L43.9664 63.7668L43.9652 63.7643Z" fill="#2B3239"/>
<path d="M81.9286 60.3911L81.3295 63.4622H66.5573L66.2816 64.8768H77.6677C77.8809 64.8768 78.0953 64.8929 78.3133 64.9249C78.7458 65.0002 79.1439 65.1321 79.5066 65.3196C79.8692 65.5071 80.1767 65.7414 80.4315 66.0201C80.8187 66.4395 81.0588 66.9205 81.1568 67.4619C81.2523 68.0046 81.2229 68.5522 81.0674 69.1048C80.9118 69.6585 80.6373 70.1864 80.2465 70.6921C79.8545 71.1965 79.3596 71.6208 78.7605 71.9649C78.5559 72.0833 78.3501 72.1881 78.1406 72.2794C77.9311 72.3707 77.7192 72.4435 77.5072 72.4965C77.0674 72.626 76.6337 72.6901 76.2074 72.6901H62.1543L62.7533 69.6191H77.7657L78.0671 68.0761H66.4887C65.5943 68.0761 64.8323 67.8356 64.2014 67.3546C63.6979 66.9908 63.3499 66.553 63.1564 66.0386C62.964 65.5256 62.9089 64.9903 62.991 64.4341C63.0731 63.8778 63.285 63.3351 63.6281 62.806C63.9711 62.2769 64.4293 61.8193 65.0063 61.4345C65.2121 61.3063 65.4216 61.1854 65.636 61.0732C65.8492 60.9609 66.0831 60.8561 66.3355 60.7599C66.6675 60.6427 67.0069 60.5515 67.3548 60.4873C67.7027 60.4232 68.058 60.3911 68.4194 60.3911H81.9298H81.9286Z" fill="#2B3239"/>
<path d="M89.3025 63.3498L89.9922 62.3533C90.0449 62.3002 90.0939 62.2435 90.1368 62.1843C90.1809 62.1251 90.2225 62.0696 90.2654 62.0153C90.7787 61.4048 91.2479 60.9621 91.6743 60.6895C92.0994 60.4157 92.5233 60.2368 92.9447 60.1505C93.6038 60.0432 94.1563 60.132 94.6011 60.4157C95.0458 60.6993 95.4366 61.2334 95.7735 62.0153C95.8017 62.0906 95.831 62.1596 95.8605 62.225C95.8899 62.2904 95.9193 62.3594 95.9474 62.4347L96.2672 63.4152L99.5517 72.6925H95.9585L94.813 69.3168H88.4094L85.9616 72.6925H82.3366L89.3013 63.3511L89.3025 63.3498ZM92.7524 63.5102L90.7469 66.1791H93.6859L92.7536 63.5102H92.7524Z" fill="#2B3239"/>
<mask id="mask0_175_265" style="mask-type:luminance" maskUnits="userSpaceOnUse" x="82" y="60" width="18" height="13">
<path d="M89.3025 63.3498L89.9922 62.3533C90.0449 62.3002 90.0939 62.2435 90.1368 62.1843C90.1809 62.1251 90.2225 62.0696 90.2654 62.0153C90.7787 61.4048 91.2479 60.9621 91.6743 60.6895C92.0994 60.4157 92.5233 60.2368 92.9447 60.1505C93.6038 60.0432 94.1563 60.132 94.6011 60.4157C95.0458 60.6993 95.4366 61.2334 95.7735 62.0153C95.8017 62.0906 95.831 62.1596 95.8605 62.225C95.8899 62.2904 95.9193 62.3594 95.9474 62.4347L96.2672 63.4152L99.5517 72.6925H95.9585L94.813 69.3168H88.4094L85.9616 72.6925H82.3366L89.3013 63.3511L89.3025 63.3498ZM92.7524 63.5102L90.7469 66.1791H93.6859L92.7536 63.5102H92.7524Z" fill="white"/>
</mask>
<g mask="url(#mask0_175_265)">
<path d="M93.6859 63.5098H90.7469V66.1787H93.6859V63.5098Z" fill="#2B3239"/>
<path d="M99.5517 60.043H82.3366V72.691H99.5517V60.043Z" fill="#2B3239"/>
</g>
<path d="M102.18 60.375H105.357L103.553 69.619H115.004L116.808 60.375H119.986L118.282 69.1047C118.203 69.5117 118.078 69.8632 117.909 70.158C117.74 70.4527 117.465 70.782 117.085 71.1471C117.019 71.2113 116.954 71.2729 116.889 71.3321C116.824 71.3913 116.761 71.4468 116.697 71.5011C116.217 71.8871 115.736 72.1819 115.255 72.3854C114.774 72.5889 114.309 72.6913 113.862 72.6913H103.641C103.353 72.6913 103.092 72.6641 102.858 72.6111C102.623 72.5581 102.404 72.4717 102.198 72.3546C101.992 72.2362 101.797 72.0758 101.614 71.8723C101.43 71.6688 101.244 71.4222 101.055 71.1323C100.766 70.7031 100.587 70.3121 100.518 69.9582C100.448 69.6042 100.459 69.1923 100.551 68.7199L102.18 60.3762V60.375Z" fill="#2B3239"/>
<mask id="mask1_175_265" style="mask-type:luminance" maskUnits="userSpaceOnUse" x="100" y="60" width="20" height="13">
<path d="M102.18 60.375H105.357L103.553 69.619H115.004L116.808 60.375H119.986L118.282 69.1047C118.203 69.5117 118.078 69.8632 117.909 70.158C117.74 70.4527 117.465 70.782 117.085 71.1471C117.019 71.2113 116.954 71.2729 116.889 71.3321C116.824 71.3913 116.761 71.4468 116.697 71.5011C116.217 71.8871 115.736 72.1819 115.255 72.3854C114.774 72.5889 114.309 72.6913 113.862 72.6913H103.641C103.353 72.6913 103.092 72.6641 102.858 72.6111C102.623 72.5581 102.404 72.4717 102.198 72.3546C101.992 72.2362 101.797 72.0758 101.614 71.8723C101.43 71.6688 101.244 71.4222 101.055 71.1323C100.766 70.7031 100.587 70.3121 100.518 69.9582C100.448 69.6042 100.459 69.1923 100.551 68.7199L102.18 60.3762V60.375Z" fill="white"/>
</mask>
<g mask="url(#mask1_175_265)">
<path d="M106.84 60.375H100.447V72.69H106.84V60.375Z" fill="#2B3239"/>
<path d="M107.318 60.375H106.841V72.69H107.318V60.375Z" fill="#2B3239"/>
<path d="M107.793 60.375H107.316V72.69H107.793V60.375Z" fill="#2B3239"/>
<path d="M108.269 60.375H107.793V72.69H108.269V60.375Z" fill="#2B3239"/>
<path d="M108.745 60.375H108.268V72.69H108.745V60.375Z" fill="#2B3239"/>
<path d="M109.221 60.375H108.745V72.69H109.221V60.375Z" fill="#2B3239"/>
<path d="M109.697 60.375H109.22V72.69H109.697V60.375Z" fill="#2B3239"/>
<path d="M110.173 60.375H109.697V72.69H110.173V60.375Z" fill="#2B3239"/>
<path d="M110.649 60.375H110.172V72.69H110.649V60.375Z" fill="#2B3239"/>
<path d="M111.125 60.375H110.649V72.69H111.125V60.375Z" fill="#2B3239"/>
<path d="M111.602 60.375H111.125V72.69H111.602V60.375Z" fill="#2B3239"/>
<path d="M112.077 60.375H111.601V72.69H112.077V60.375Z" fill="#2B3239"/>
<path d="M112.554 60.375H112.077V72.69H112.554V60.375Z" fill="#2B3239"/>
<path d="M113.029 60.375H112.552V72.69H113.029V60.375Z" fill="#2B3239"/>
<path d="M113.506 60.375H113.029V72.69H113.506V60.375Z" fill="#2B3239"/>
<path d="M113.981 60.375H113.504V72.69H113.981V60.375Z" fill="#2B3239"/>
<path d="M114.457 60.375H113.981V72.69H114.457V60.375Z" fill="#2B3239"/>
<path d="M114.933 60.375H114.456V72.69H114.933V60.375Z" fill="#2B3239"/>
<path d="M115.409 60.375H114.933V72.69H115.409V60.375Z" fill="#2B3239"/>
<path d="M115.886 60.375H115.409V72.69H115.886V60.375Z" fill="#2B3239"/>
<path d="M116.361 60.375H115.885V72.69H116.361V60.375Z" fill="#2B3239"/>
<path d="M116.838 60.375H116.361V72.69H116.838V60.375Z" fill="#2B3239"/>
<path d="M117.313 60.375H116.837V72.69H117.313V60.375Z" fill="#2B3239"/>
<path d="M117.79 60.375H117.313V72.69H117.79V60.375Z" fill="#2B3239"/>
<path d="M118.265 60.375H117.789V72.69H118.265V60.375Z" fill="#2B3239"/>
<path d="M118.742 60.375H118.265V72.69H118.742V60.375Z" fill="#2B3239"/>
<path d="M119.217 60.375H118.74V72.69H119.217V60.375Z" fill="#2B3239"/>
<path d="M119.694 60.375H119.217V72.69H119.694V60.375Z" fill="#2B3239"/>
<path d="M119.986 60.375H119.694V72.69H119.986V60.375Z" fill="#2B3239"/>
</g>
<path d="M120.893 60.3911H138.269L137.669 63.4622H130.579L128.778 72.6901H125.6L127.401 63.4622H120.294L120.893 60.3911Z" fill="#2B3239"/>
<mask id="mask2_175_265" style="mask-type:luminance" maskUnits="userSpaceOnUse" x="120" y="60" width="19" height="13">
<path d="M120.893 60.3911H138.269L137.669 63.4622H130.579L128.778 72.6901H125.6L127.401 63.4622H120.294L120.893 60.3911Z" fill="white"/>
</mask>
<g mask="url(#mask2_175_265)">
<path d="M120.645 60.3911H120.294V72.6901H120.645V60.3911Z" fill="#2B3239"/>
<path d="M121.122 60.3911H120.645V72.6901H121.122V60.3911Z" fill="#2B3239"/>
<path d="M121.597 60.3911H121.121V72.6901H121.597V60.3911Z" fill="#2B3239"/>
<path d="M122.074 60.3911H121.597V72.6901H122.074V60.3911Z" fill="#2B3239"/>
<path d="M122.549 60.3911H122.073V72.6901H122.549V60.3911Z" fill="#2B3239"/>
<path d="M123.026 60.3911H122.549V72.6901H123.026V60.3911Z" fill="#2B3239"/>
<path d="M123.501 60.3911H123.025V72.6901H123.501V60.3911Z" fill="#2B3239"/>
<path d="M123.978 60.3911H123.501V72.6901H123.978V60.3911Z" fill="#2B3239"/>
<path d="M124.454 60.3911H123.978V72.6901H124.454V60.3911Z" fill="#2B3239"/>
<path d="M124.93 60.3911H124.453V72.6901H124.93V60.3911Z" fill="#2B3239"/>
<path d="M125.406 60.3911H124.93V72.6901H125.406V60.3911Z" fill="#2B3239"/>
<path d="M125.882 60.3911H125.405V72.6901H125.882V60.3911Z" fill="#2B3239"/>
<path d="M126.358 60.3911H125.882V72.6901H126.358V60.3911Z" fill="#2B3239"/>
<path d="M126.833 60.3911H126.357V72.6901H126.833V60.3911Z" fill="#2B3239"/>
<path d="M127.31 60.3911H126.833V72.6901H127.31V60.3911Z" fill="#2B3239"/>
<path d="M127.787 60.3911H127.31V72.6901H127.787V60.3911Z" fill="#2B3239"/>
<path d="M128.262 60.3911H127.785V72.6901H128.262V60.3911Z" fill="#2B3239"/>
<path d="M128.738 60.3911H128.262V72.6901H128.738V60.3911Z" fill="#2B3239"/>
<path d="M129.214 60.3911H128.737V72.6901H129.214V60.3911Z" fill="#2B3239"/>
<path d="M129.69 60.3911H129.214V72.6901H129.69V60.3911Z" fill="#2B3239"/>
<path d="M130.036 60.3911H129.689V72.6901H130.036V60.3911Z" fill="#2B3239"/>
<path d="M130.384 60.3911H130.037V72.6901H130.384V60.3911Z" fill="#2B3239"/>
<path d="M130.73 60.3911H130.384V72.6901H130.73V60.3911Z" fill="#2B3239"/>
<path d="M131.078 60.3911H130.732V72.6901H131.078V60.3911Z" fill="#2B3239"/>
<path d="M131.425 60.3911H131.078V72.6901H131.425V60.3911Z" fill="#2B3239"/>
<path d="M131.773 60.3911H131.426V72.6901H131.773V60.3911Z" fill="#2B3239"/>
<path d="M132.12 60.3911H131.773V72.6901H132.12V60.3911Z" fill="#2B3239"/>
<path d="M132.468 60.3911H132.121V72.6901H132.468V60.3911Z" fill="#2B3239"/>
<path d="M132.814 60.3911H132.468V72.6901H132.814V60.3911Z" fill="#2B3239"/>
<path d="M133.162 60.3911H132.816V72.6901H133.162V60.3911Z" fill="#2B3239"/>
<path d="M133.509 60.3911H133.162V72.6901H133.509V60.3911Z" fill="#2B3239"/>
<path d="M133.857 60.3911H133.51V72.6901H133.857V60.3911Z" fill="#2B3239"/>
<path d="M134.204 60.3911H133.857V72.6901H134.204V60.3911Z" fill="#2B3239"/>
<path d="M134.552 60.3911H134.205V72.6901H134.552V60.3911Z" fill="#2B3239"/>
<path d="M134.898 60.3911H134.552V72.6901H134.898V60.3911Z" fill="#2B3239"/>
<path d="M135.246 60.3911H134.9V72.6901H135.246V60.3911Z" fill="#2B3239"/>
<path d="M135.593 60.3911H135.246V72.6901H135.593V60.3911Z" fill="#2B3239"/>
<path d="M135.941 60.3911H135.594V72.6901H135.941V60.3911Z" fill="#2B3239"/>
<path d="M136.288 60.3911H135.941V72.6901H136.288V60.3911Z" fill="#2B3239"/>
<path d="M136.635 60.3911H136.289V72.6901H136.635V60.3911Z" fill="#2B3239"/>
<path d="M136.982 60.3911H136.635V72.6901H136.982V60.3911Z" fill="#2B3239"/>
<path d="M137.33 60.3911H136.983V72.6901H137.33V60.3911Z" fill="#2B3239"/>
<path d="M137.677 60.3911H137.33V72.6901H137.677V60.3911Z" fill="#2B3239"/>
<path d="M138.025 60.3911H137.678V72.6901H138.025V60.3911Z" fill="#2B3239"/>
<path d="M138.269 60.3911H138.025V72.6901H138.269V60.3911Z" fill="#2B3239"/>
</g>
<path d="M138.208 64.0515C138.315 63.5051 138.544 63.0019 138.895 62.5419C139.245 62.0818 139.768 61.6267 140.463 61.1765C140.856 60.9089 141.242 60.7165 141.622 60.5981C142.001 60.4809 142.46 60.4106 142.995 60.3896H152.465C152.912 60.3896 153.304 60.4513 153.644 60.5747C153.98 60.698 154.294 60.8929 154.583 61.1605C154.712 61.2678 154.832 61.4121 154.946 61.5946C155.121 61.8413 155.262 62.0707 155.37 62.2853C155.478 62.4987 155.555 62.7133 155.604 62.9279C155.653 63.1425 155.672 63.3645 155.665 63.5939C155.658 63.8245 155.628 64.0675 155.578 64.3241L154.685 68.8998C154.583 69.424 154.404 69.8852 154.152 70.2811C153.898 70.6771 153.522 71.0939 153.021 71.533C152.527 71.94 152.048 72.2348 151.588 72.4161C151.126 72.5974 150.603 72.6887 150.017 72.6887H140.468C140.137 72.6887 139.842 72.6652 139.579 72.6171C139.317 72.569 139.08 72.4938 138.865 72.3927C138.651 72.2915 138.454 72.1571 138.272 71.9906C138.092 71.8253 137.919 71.6181 137.754 71.3727C137.486 70.9977 137.315 70.6018 137.243 70.185C137.17 69.7668 137.189 69.2747 137.299 68.7086L138.208 64.0515ZM152.569 63.4619H141.502L140.3 69.6201H151.367L152.569 63.4619Z" fill="#2B3239"/>
<mask id="mask3_175_265" style="mask-type:luminance" maskUnits="userSpaceOnUse" x="137" y="60" width="19" height="13">
<path d="M138.208 64.0515C138.315 63.5051 138.544 63.0019 138.895 62.5419C139.245 62.0818 139.768 61.6267 140.463 61.1765C140.856 60.9089 141.242 60.7165 141.622 60.5981C142.001 60.4809 142.46 60.4106 142.995 60.3896H152.465C152.912 60.3896 153.304 60.4513 153.644 60.5747C153.98 60.698 154.294 60.8929 154.583 61.1605C154.712 61.2678 154.832 61.4121 154.946 61.5946C155.121 61.8413 155.262 62.0707 155.37 62.2853C155.478 62.4987 155.555 62.7133 155.604 62.9279C155.653 63.1425 155.672 63.3645 155.665 63.5939C155.658 63.8245 155.628 64.0675 155.578 64.3241L154.685 68.8998C154.583 69.424 154.404 69.8852 154.152 70.2811C153.898 70.6771 153.522 71.0939 153.021 71.533C152.527 71.94 152.048 72.2348 151.588 72.4161C151.126 72.5974 150.603 72.6887 150.017 72.6887H140.468C140.137 72.6887 139.842 72.6652 139.579 72.6171C139.317 72.569 139.08 72.4938 138.865 72.3927C138.651 72.2915 138.454 72.1571 138.272 71.9906C138.092 71.8253 137.919 71.6181 137.754 71.3727C137.486 70.9977 137.315 70.6018 137.243 70.185C137.17 69.7668 137.189 69.2747 137.299 68.7086L138.208 64.0515ZM152.569 63.4619H141.502L140.3 69.6201H151.367L152.569 63.4619Z" fill="white"/>
</mask>
<g mask="url(#mask3_175_265)">
<path d="M140.455 63.4624H140.3V69.6205H140.455V63.4624Z" fill="#2B3239"/>
<path d="M140.802 63.4624H140.455V69.6205H140.802V63.4624Z" fill="#2B3239"/>
<path d="M141.15 63.4624H140.803V69.6205H141.15V63.4624Z" fill="#2B3239"/>
<path d="M141.497 63.4624H141.15V69.6205H141.497V63.4624Z" fill="#2B3239"/>
<path d="M141.845 63.4624H141.498V69.6205H141.845V63.4624Z" fill="#2B3239"/>
<path d="M142.191 63.4624H141.845V69.6205H142.191V63.4624Z" fill="#2B3239"/>
<path d="M142.539 63.4624H142.193V69.6205H142.539V63.4624Z" fill="#2B3239"/>
<path d="M142.886 63.4624H142.539V69.6205H142.886V63.4624Z" fill="#2B3239"/>
<path d="M143.234 63.4624H142.887V69.6205H143.234V63.4624Z" fill="#2B3239"/>
<path d="M143.581 63.4624H143.234V69.6205H143.581V63.4624Z" fill="#2B3239"/>
<path d="M143.928 63.4624H143.582V69.6205H143.928V63.4624Z" fill="#2B3239"/>
<path d="M144.275 63.4624H143.928V69.6205H144.275V63.4624Z" fill="#2B3239"/>
<path d="M144.623 63.4624H144.276V69.6205H144.623V63.4624Z" fill="#2B3239"/>
<path d="M144.97 63.4624H144.623V69.6205H144.97V63.4624Z" fill="#2B3239"/>
<path d="M145.318 63.4624H144.971V69.6205H145.318V63.4624Z" fill="#2B3239"/>
<path d="M145.664 63.4624H145.318V69.6205H145.664V63.4624Z" fill="#2B3239"/>
<path d="M146.012 63.4624H145.666V69.6205H146.012V63.4624Z" fill="#2B3239"/>
<path d="M146.359 63.4624H146.012V69.6205H146.359V63.4624Z" fill="#2B3239"/>
<path d="M146.707 63.4624H146.36V69.6205H146.707V63.4624Z" fill="#2B3239"/>
<path d="M147.054 63.4624H146.707V69.6205H147.054V63.4624Z" fill="#2B3239"/>
<path d="M147.402 63.4624H147.055V69.6205H147.402V63.4624Z" fill="#2B3239"/>
<path d="M147.698 63.4624H147.402V69.6205H147.698V63.4624Z" fill="#2B3239"/>
<path d="M147.995 63.4624H147.698V69.6205H147.995V63.4624Z" fill="#2B3239"/>
<path d="M148.291 63.4624H147.995V69.6205H148.291V63.4624Z" fill="#2B3239"/>
<path d="M148.588 63.4624H148.291V69.6205H148.588V63.4624Z" fill="#2B3239"/>
<path d="M148.884 63.4624H148.588V69.6205H148.884V63.4624Z" fill="#2B3239"/>
<path d="M149.18 63.4624H148.884V69.6205H149.18V63.4624Z" fill="#2B3239"/>
<path d="M149.477 63.4624H149.181V69.6205H149.477V63.4624Z" fill="#2B3239"/>
<path d="M149.773 63.4624H149.477V69.6205H149.773V63.4624Z" fill="#2B3239"/>
<path d="M150.07 63.4624H149.773V69.6205H150.07V63.4624Z" fill="#2B3239"/>
<path d="M150.366 63.4624H150.07V69.6205H150.366V63.4624Z" fill="#2B3239"/>
<path d="M150.663 63.4624H150.366V69.6205H150.663V63.4624Z" fill="#2B3239"/>
<path d="M150.959 63.4624H150.663V69.6205H150.959V63.4624Z" fill="#2B3239"/>
<path d="M151.256 63.4624H150.959V69.6205H151.256V63.4624Z" fill="#2B3239"/>
<path d="M151.552 63.4624H151.256V69.6205H151.552V63.4624Z" fill="#2B3239"/>
<path d="M151.849 63.4624H151.552V69.6205H151.849V63.4624Z" fill="#2B3239"/>
<path d="M152.145 63.4624H151.849V69.6205H152.145V63.4624Z" fill="#2B3239"/>
<path d="M152.442 63.4624H152.145V69.6205H152.442V63.4624Z" fill="#2B3239"/>
<path d="M152.568 63.4624H152.442V69.6205H152.568V63.4624Z" fill="#2B3239"/>
<path d="M137.331 60.3911H137.171V72.6901H137.331V60.3911Z" fill="#2B3239"/>
<path d="M137.677 60.3911H137.33V72.6901H137.677V60.3911Z" fill="#2B3239"/>
<path d="M138.025 60.3911H137.678V72.6901H138.025V60.3911Z" fill="#2B3239"/>
<path d="M138.371 60.3911H138.025V72.6901H138.371V60.3911Z" fill="#2B3239"/>
<path d="M138.719 60.3911H138.373V72.6901H138.719V60.3911Z" fill="#2B3239"/>
<path d="M139.066 60.3911H138.719V72.6901H139.066V60.3911Z" fill="#2B3239"/>
<path d="M139.414 60.3911H139.067V72.6901H139.414V60.3911Z" fill="#2B3239"/>
<path d="M139.761 60.3911H139.414V72.6901H139.761V60.3911Z" fill="#2B3239"/>
<path d="M140.109 60.3911H139.762V72.6901H140.109V60.3911Z" fill="#2B3239"/>
<path d="M140.455 60.3911H140.109V72.6901H140.455V60.3911Z" fill="#2B3239"/>
<path d="M140.802 60.3911H140.455V72.6901H140.802V60.3911Z" fill="#2B3239"/>
<path d="M141.15 60.3911H140.803V72.6901H141.15V60.3911Z" fill="#2B3239"/>
<path d="M141.497 60.3911H141.15V72.6901H141.497V60.3911Z" fill="#2B3239"/>
<path d="M141.845 60.3911H141.498V72.6901H141.845V60.3911Z" fill="#2B3239"/>
<path d="M142.191 60.3911H141.845V72.6901H142.191V60.3911Z" fill="#2B3239"/>
<path d="M142.539 60.3911H142.193V72.6901H142.539V60.3911Z" fill="#2B3239"/>
<path d="M142.886 60.3911H142.539V72.6901H142.886V60.3911Z" fill="#2B3239"/>
<path d="M143.234 60.3911H142.887V72.6901H143.234V60.3911Z" fill="#2B3239"/>
<path d="M143.581 60.3911H143.234V72.6901H143.581V60.3911Z" fill="#2B3239"/>
<path d="M143.928 60.3911H143.582V72.6901H143.928V60.3911Z" fill="#2B3239"/>
<path d="M144.275 60.3911H143.928V72.6901H144.275V60.3911Z" fill="#2B3239"/>
<path d="M144.623 60.3911H144.276V72.6901H144.623V60.3911Z" fill="#2B3239"/>
<path d="M144.97 60.3911H144.623V72.6901H144.97V60.3911Z" fill="#2B3239"/>
<path d="M145.318 60.3911H144.971V72.6901H145.318V60.3911Z" fill="#2B3239"/>
<path d="M145.664 60.3911H145.318V72.6901H145.664V60.3911Z" fill="#2B3239"/>
<path d="M146.012 60.3911H145.666V72.6901H146.012V60.3911Z" fill="#2B3239"/>
<path d="M146.359 60.3911H146.012V72.6901H146.359V60.3911Z" fill="#2B3239"/>
<path d="M146.707 60.3911H146.36V72.6901H146.707V60.3911Z" fill="#2B3239"/>
<path d="M147.054 60.3911H146.707V72.6901H147.054V60.3911Z" fill="#2B3239"/>
<path d="M147.402 60.3911H147.055V72.6901H147.402V60.3911Z" fill="#2B3239"/>
<path d="M147.698 60.3911H147.402V72.6901H147.698V60.3911Z" fill="#2B3239"/>
<path d="M147.995 60.3911H147.698V72.6901H147.995V60.3911Z" fill="#2B3239"/>
<path d="M148.291 60.3911H147.995V72.6901H148.291V60.3911Z" fill="#2B3239"/>
<path d="M148.588 60.3911H148.291V72.6901H148.588V60.3911Z" fill="#2B3239"/>
<path d="M148.884 60.3911H148.588V72.6901H148.884V60.3911Z" fill="#2B3239"/>
<path d="M149.18 60.3911H148.884V72.6901H149.18V60.3911Z" fill="#2B3239"/>
<path d="M149.477 60.3911H149.181V72.6901H149.477V60.3911Z" fill="#2B3239"/>
<path d="M149.773 60.3911H149.477V72.6901H149.773V60.3911Z" fill="#2B3239"/>
<path d="M150.07 60.3911H149.773V72.6901H150.07V60.3911Z" fill="#2B3239"/>
<path d="M150.366 60.3911H150.07V72.6901H150.366V60.3911Z" fill="#2B3239"/>
<path d="M150.663 60.3911H150.366V72.6901H150.663V60.3911Z" fill="#2B3239"/>
<path d="M150.959 60.3911H150.663V72.6901H150.959V60.3911Z" fill="#2B3239"/>
<path d="M151.256 60.3911H150.959V72.6901H151.256V60.3911Z" fill="#2B3239"/>
<path d="M151.552 60.3911H151.256V72.6901H151.552V60.3911Z" fill="#2B3239"/>
<path d="M151.849 60.3911H151.552V72.6901H151.849V60.3911Z" fill="#2B3239"/>
<path d="M152.145 60.3911H151.849V72.6901H152.145V60.3911Z" fill="#2B3239"/>
<path d="M152.442 60.3911H152.145V72.6901H152.442V60.3911Z" fill="#2B3239"/>
<path d="M152.738 60.3911H152.442V72.6901H152.738V60.3911Z" fill="#2B3239"/>
<path d="M153.035 60.3911H152.738V72.6901H153.035V60.3911Z" fill="#2B3239"/>
<path d="M153.331 60.3911H153.035V72.6901H153.331V60.3911Z" fill="#2B3239"/>
<path d="M153.628 60.3911H153.331V72.6901H153.628V60.3911Z" fill="#2B3239"/>
<path d="M153.924 60.3911H153.628V72.6901H153.924V60.3911Z" fill="#2B3239"/>
<path d="M154.221 60.3911H153.924V72.6901H154.221V60.3911Z" fill="#2B3239"/>
<path d="M154.517 60.3911H154.221V72.6901H154.517V60.3911Z" fill="#2B3239"/>
<path d="M154.814 60.3911H154.517V72.6901H154.814V60.3911Z" fill="#2B3239"/>
<path d="M155.11 60.3911H154.814V72.6901H155.11V60.3911Z" fill="#2B3239"/>
<path d="M155.406 60.3911H155.11V72.6901H155.406V60.3911Z" fill="#2B3239"/>
<path d="M155.674 60.3911H155.408V72.6901H155.674V60.3911Z" fill="#2B3239"/>
</g>
<path d="M19.974 24.8939C18.4231 29.1798 12.9971 29.1872 8.58918 29.1021C5.88416 29.0527 3.55769 28.9676 2.7528 29.8223C3.81496 25.7042 10.2627 24.6509 15.0381 24.5707C17.3241 24.5337 19.228 24.7175 19.9728 24.8939H19.974Z" fill="#2B3239"/>
<path d="M126.455 4.62596C111.107 2.20735 97.7483 0.0662512 76.5712 3.71205C67.454 4.47796 38.4277 14.6642 38.4277 14.6642C45.5578 10.271 70.5732 1.93725 76.4463 1.22314C81.7252 0.581794 102.148 -2.52873 126.455 4.62596Z" fill="url(#paint0_linear_175_265)"/>
<path d="M143.909 22.4788C153.647 20.2168 157.413 15.5498 157.413 15.5498C159.152 20.4401 157.683 24.6668 143.909 22.4788Z" fill="#2B3239"/>
<path d="M57.0346 24.1016C57.0346 24.1016 76.733 17.7486 85.5292 19.6739C94.3266 21.5992 106.757 24.1016 111.156 22.7548C111.156 22.7548 99.1082 26.4129 92.7965 25.2573C86.486 24.1016 85.5292 19.9218 80.3654 22.3971C75.2016 24.8725 71.5679 27.9534 71.5679 27.9534C71.5679 27.9534 72.9952 32.2886 80.3654 26.2205C85.147 24.3828 96.2378 34.114 97.0035 35.2696C97.0108 35.2807 97.0182 35.2931 97.0255 35.3042C97.8439 36.5671 99.2564 37.3084 100.754 37.2393L126.454 36.0393L99.2969 39.1202C99.2969 39.1202 101.018 42.9608 95.4721 42.8696C95.4721 42.8696 94.8988 46.244 90.6905 45.0884C90.6905 45.0884 89.5426 49.1313 84.5712 46.8212C84.5712 46.8212 78.6882 52.5748 64.0862 42.6648C61.9154 41.1922 59.4186 40.2783 56.8177 39.9774L39.4384 37.9645L59.4762 37.4885C61.8909 37.4305 64.2137 38.3765 65.9374 40.0797C68.33 42.4441 72.7722 45.5805 79.7908 46.0516C82.3451 45.7396 80.3887 43.8489 79.5507 43.1384C79.3485 42.9682 79.264 42.6957 79.3314 42.4391C79.4576 41.9655 80.0224 41.7768 80.4046 42.079C81.7473 43.1397 86.0094 45.9887 87.1304 46.1293C88.6605 46.3217 89.2339 44.9638 88.6605 43.7181C88.1742 42.6611 83.9513 39.8491 83.1672 39.2793C83.0275 39.1781 82.9454 39.0153 82.9454 38.8427C82.9454 38.4011 83.4441 38.1458 83.7981 38.4061C85.7656 39.8528 92.0651 44.3101 92.8198 43.9352C93.7766 43.4591 94.541 42.3035 93.3931 40.763C92.5331 39.6074 88.7181 37.0629 87.6425 36.3945C87.324 36.1971 87.2333 35.7729 87.4403 35.4596C87.6486 35.1451 88.0737 35.0686 88.3775 35.2894L95.6216 40.8247C95.6216 40.8247 98.443 41.9581 97.5339 38.3222C96.0038 36.9741 89.9457 30.2968 82.9442 27.5674C76.1547 27.5674 79.4061 32.5735 70.6087 29.8774C67.9318 29.1078 69.8442 26.7965 72.3299 25.2573C74.8157 23.7168 76.5369 22.7548 75.9636 21.7916C75.5703 21.1305 70.6699 23.1014 67.6366 24.4013C66.0501 25.0809 64.3068 25.2943 62.6051 25.0155L57.0321 24.1016H57.0346Z" fill="#2B3239"/>
<path d="M158 13.1583C133.839 19.3349 112.866 0.668128 76.5712 3.71205C67.454 4.47796 38.4277 14.6642 38.4277 14.6642C45.5578 10.271 70.5732 1.93725 76.4463 1.22314C81.7252 0.581794 102.148 -2.52873 126.455 4.62596H126.467C128.573 5.24881 130.707 5.94442 132.863 6.7276C148.47 12.3875 157.999 13.1583 157.999 13.1583H158Z" fill="url(#paint1_linear_175_265)"/>
<path d="M158 13.1583C133.839 19.3349 112.866 0.668128 76.5712 3.71205C67.454 4.47796 38.4277 14.6642 38.4277 14.6642C45.5578 10.271 70.5732 1.93725 76.4463 1.22314C81.7252 0.581794 102.148 -2.52873 126.455 4.62596H126.467C128.573 5.24881 130.707 5.94442 132.863 6.7276C148.47 12.3875 157.999 13.1583 157.999 13.1583H158Z" fill="#2B3239"/>
<path d="M142.27 16.4391C142.299 16.4231 142.336 16.4551 142.313 16.4773C133.455 25.2132 110.461 17.3456 93.6712 15.9519C88.4033 15.5104 83.4306 15.3821 79.177 16.0802C89.8832 11.6648 100.999 11.6648 110.841 12.5762C116.962 13.1436 123.023 14.1426 128.991 15.4758C133.763 16.5415 140.129 17.6293 142.268 16.4391H142.27Z" fill="#2B3239"/>
<path d="M81.9286 8.95752C81.0233 14.2252 72.2295 16.941 60.8103 18.4506C38.6764 21.3762 6.67067 19.7605 3.03703 23.3964C6.64127 19.1093 20.0782 17.739 34.9203 16.7832H34.9864C54.9923 15.4857 77.5268 14.9331 81.9298 8.95752H81.9286Z" fill="#2B3239"/>
<defs>
<linearGradient id="paint0_linear_175_265" x1="38.5727" y1="6.81566" x2="126.393" y2="8.39924" gradientUnits="userSpaceOnUse">
<stop stop-color="#FFF7A1"/>
<stop offset="0.03" stop-color="#FFE678"/>
<stop offset="0.04" stop-color="#F5D266"/>
<stop offset="0.08" stop-color="#D79A32"/>
<stop offset="0.11" stop-color="#C47712"/>
<stop offset="0.13" stop-color="#BE6A06"/>
<stop offset="0.16" stop-color="#C67A14"/>
<stop offset="0.23" stop-color="#DCA43B"/>
<stop offset="0.32" stop-color="#FFE678"/>
<stop offset="0.39" stop-color="#FFF193"/>
<stop offset="0.44" stop-color="#FFF7A1"/>
<stop offset="0.69" stop-color="#FFE678"/>
<stop offset="0.7" stop-color="#F8DA6D"/>
<stop offset="0.75" stop-color="#DFAA41"/>
<stop offset="0.79" stop-color="#CD8722"/>
<stop offset="0.82" stop-color="#C2720F"/>
<stop offset="0.85" stop-color="#BE6B08"/>
<stop offset="0.87" stop-color="#BF6E0B"/>
<stop offset="0.89" stop-color="#C57915"/>
<stop offset="0.91" stop-color="#CF8C26"/>
<stop offset="0.93" stop-color="#DDA73E"/>
<stop offset="0.95" stop-color="#EFC85D"/>
<stop offset="0.96" stop-color="#FFE678"/>
<stop offset="0.98" stop-color="#FFEF8D"/>
<stop offset="1" stop-color="#FFF69B"/>
</linearGradient>
<linearGradient id="paint1_linear_175_265" x1="86.7625" y1="10.3596" x2="152.888" y2="23.9854" gradientUnits="userSpaceOnUse">
<stop stop-color="#FFF7A1"/>
<stop offset="0.03" stop-color="#FFE678"/>
<stop offset="0.04" stop-color="#F5D266"/>
<stop offset="0.08" stop-color="#D79A32"/>
<stop offset="0.11" stop-color="#C47712"/>
<stop offset="0.13" stop-color="#BE6A06"/>
<stop offset="0.16" stop-color="#C67A14"/>
<stop offset="0.23" stop-color="#DCA43B"/>
<stop offset="0.32" stop-color="#FFE678"/>
<stop offset="0.39" stop-color="#FFF193"/>
<stop offset="0.44" stop-color="#FFF7A1"/>
<stop offset="0.69" stop-color="#FFE678"/>
<stop offset="0.7" stop-color="#F8DA6D"/>
<stop offset="0.75" stop-color="#DFAA41"/>
<stop offset="0.79" stop-color="#CD8722"/>
<stop offset="0.82" stop-color="#C2720F"/>
<stop offset="0.85" stop-color="#BE6B08"/>
<stop offset="0.87" stop-color="#BF6E0B"/>
<stop offset="0.89" stop-color="#C57915"/>
<stop offset="0.91" stop-color="#CF8C26"/>
<stop offset="0.93" stop-color="#DDA73E"/>
<stop offset="0.95" stop-color="#EFC85D"/>
<stop offset="0.96" stop-color="#FFE678"/>
<stop offset="0.98" stop-color="#FFEF8D"/>
<stop offset="1" stop-color="#FFF69B"/>
</linearGradient>
</defs>
</svg>
