<svg width="1204" height="151" viewBox="0 0 1204 151" fill="none" xmlns="http://www.w3.org/2000/svg">
<mask id="mask0_2001_713" style="mask-type:alpha" maskUnits="userSpaceOnUse" x="0" y="0" width="1204" height="151">
<rect width="1204" height="151" fill="#D9D9D9"/>
</mask>
<g mask="url(#mask0_2001_713)">
<path fill-rule="evenodd" clip-rule="evenodd" d="M2108 0H-892V151H2108V0ZM50.382 3.85556H26.256L8 97.6394H32.257L41.31 51.1091C40.938 55.5235 41.757 59.5247 43.767 63.1127C45.777 66.7006 49.331 70.1288 54.439 73.3974L92.411 97.6394H141.651L68.954 51.1091L159.292 3.84616H110.415L64.87 27.844L62.329 29.065L59.063 30.9059C55.946 32.7844 53.369 34.6253 51.322 36.4193C48.754 38.7862 46.772 40.8713 45.376 42.6652C43.971 44.4686 42.762 46.3377 41.729 48.3007L50.382 3.85556ZM166.215 3.85556H190.351L172.095 97.6394H147.959L166.215 3.85556ZM205.117 12.1209C202.019 15.5962 200.056 19.4471 199.227 23.6925L184.833 97.6394H208.969L222.628 27.4871L274.473 90.7828C278.53 95.6857 283.108 98.6256 288.216 99.6024C293.315 100.579 298.554 99.7621 303.913 97.151C308.547 94.9437 312.306 91.9099 315.209 88.0309C318.112 84.1518 320.14 79.1926 321.322 73.1532L334.813 3.85558H310.677L296.879 74.7405L245.201 11.2005C241.498 6.54183 237.264 3.64895 232.519 2.50306C227.765 1.36658 222.675 1.85499 217.25 3.97769C212.263 5.94071 208.216 8.65512 205.117 12.1209ZM341.913 29.6661C342.136 28.5296 342.611 27.1958 343.355 25.693C344.09 24.1809 345.225 22.4151 346.751 20.3769C347.254 19.8885 347.691 19.3813 348.082 18.8554C348.473 18.3294 348.873 17.8128 349.291 17.3244C352.79 13.4923 356.512 10.5618 360.466 8.52365C364.421 6.48549 369.138 5.1048 374.618 4.36279C375.623 4.20312 376.591 4.09979 377.531 4.05283C378.47 4.01526 379.745 3.99647 381.364 3.99647H480.821L476.271 27.3837H366.505L357.377 74.2803H443.007L445.314 62.4082H403.1L407.65 39.021H474L468.315 68.2222C467.543 72.214 466.045 75.9427 463.83 79.3992C461.616 82.865 458.359 86.3027 454.061 89.7215C452.414 91.1022 450.776 92.2669 449.139 93.2061C447.501 94.1453 445.724 94.9343 443.826 95.5918C441.918 96.2399 439.862 96.7377 437.657 97.057C435.452 97.3858 432.967 97.583 430.194 97.6675H363.481C360.001 97.6675 356.958 97.4421 354.334 96.9913C351.71 96.5405 349.384 95.8266 347.356 94.8498C345.318 93.873 343.504 92.5862 341.922 90.9989C340.331 89.4116 338.824 87.4767 337.419 85.1944C335.772 82.4236 334.72 79.6058 334.274 76.7599C333.818 73.9046 333.92 70.7675 334.59 67.3487L341.922 29.6848L341.913 29.6661ZM625.693 27.3649L630.243 3.97767H527.641C524.896 3.97767 522.198 4.2219 519.556 4.71031C516.913 5.19872 514.336 5.89372 511.814 6.78601C509.897 7.51862 508.12 8.31702 506.501 9.17173C504.873 10.0264 503.282 10.9469 501.719 11.9237C497.336 14.8542 493.856 18.3388 491.251 22.3681C488.646 26.3975 487.036 30.5302 486.413 34.7662C485.789 39.0022 486.208 43.0785 487.669 46.9858C489.139 50.9025 491.781 54.2368 495.606 57.0076C500.397 60.6706 506.185 62.5021 512.977 62.5021H600.915L598.626 74.2521H484.608L480.058 97.6394H586.79C590.028 97.6394 593.322 97.151 596.662 96.1647C598.272 95.7609 599.882 95.2067 601.473 94.5117C603.064 93.8166 604.627 93.0183 606.181 92.1166C610.731 89.4961 614.49 86.2651 617.467 82.4236C620.436 78.5727 622.52 74.5527 623.701 70.3355C624.883 66.1276 625.106 61.9574 624.381 57.8247C623.636 53.7014 621.813 50.0383 618.872 46.8449C616.937 44.7222 614.602 42.9376 611.847 41.51C609.093 40.0823 606.069 39.0773 602.785 38.5044C601.129 38.2602 599.5 38.1381 597.881 38.1381H511.405L513.498 27.3649H625.693ZM686.247 26.5102L691.485 18.9211C691.885 18.5172 692.257 18.0852 692.583 17.6343C692.918 17.1835 693.234 16.7608 693.56 16.3475C697.459 11.6983 701.022 8.32636 704.26 6.25062C707.489 4.16549 710.708 2.80359 713.909 2.14612C718.915 1.32897 723.111 2.00526 726.489 4.16552C729.867 6.32579 732.835 10.3927 735.393 16.3475C735.607 16.9205 735.831 17.4465 736.054 17.9443C736.277 18.4421 736.501 18.968 736.715 19.541L739.143 27.008L764.089 97.6581H736.798L728.099 71.9509H679.464L660.873 97.6581H633.341L686.237 26.5196L686.247 26.5102ZM712.448 27.7312L697.217 48.0565H719.538L712.458 27.7312H712.448ZM808.183 3.85556H784.047V3.86497L771.681 67.405C770.983 71.0023 770.9 74.1394 771.43 76.8351C771.951 79.5307 773.31 82.5081 775.505 85.7767C776.938 87.9839 778.353 89.8624 779.748 91.4122C781.144 92.9619 782.623 94.1829 784.187 95.0846C785.75 95.9769 787.415 96.6344 789.202 97.0383C790.979 97.4421 792.961 97.6488 795.147 97.6488H872.775C876.172 97.6488 879.698 96.8692 883.355 95.3194C887.011 93.7697 890.66 91.5249 894.31 88.585C894.79 88.1718 895.27 87.7491 895.77 87.2983C896.26 86.8474 896.75 86.3778 897.26 85.8894C900.14 83.1092 902.22 80.6014 903.51 78.3566C904.79 76.1118 905.74 73.435 906.35 70.3355L919.29 3.85556H895.15L881.447 74.2521H794.477L808.183 3.85556ZM926.17 3.97767H1058.14L1053.59 27.3649H999.74L986.06 97.6394H961.92L975.6 27.3649H921.62L926.17 3.97767ZM1062.9 20.3581C1060.23 23.8615 1058.49 27.6936 1057.68 31.8545L1050.78 67.3205C1049.94 71.6316 1049.79 75.3792 1050.35 78.5633C1050.9 81.7379 1052.2 84.7529 1054.23 87.6082C1055.49 89.4773 1056.8 91.0552 1058.17 92.3138C1059.55 93.5818 1061.04 94.6056 1062.67 95.3758C1064.3 96.1459 1066.11 96.7189 1068.1 97.0852C1070.09 97.4515 1072.33 97.63 1074.84 97.63H1147.37C1151.82 97.63 1155.79 96.9349 1159.3 95.5542C1162.8 94.1735 1166.44 91.9287 1170.19 88.8292C1173.99 85.4855 1176.85 82.3108 1178.77 79.2959C1180.69 76.2809 1182.05 72.7681 1182.82 68.7763L1189.6 33.9303C1189.99 31.9766 1190.21 30.1263 1190.27 28.3699C1190.32 26.6229 1190.17 24.9323 1189.8 23.298C1189.43 21.6637 1188.84 20.0294 1188.02 18.4045C1187.2 16.7702 1186.13 15.0232 1184.8 13.1447C1183.94 11.7546 1183.03 10.6557 1182.05 9.83856C1179.85 7.8004 1177.47 6.31639 1174.91 5.37714C1172.34 4.43789 1169.36 3.96827 1165.96 3.96827H1094.04C1089.97 4.12794 1086.49 4.66331 1083.61 5.5556C1080.72 6.45728 1077.79 7.9225 1074.81 9.96067C1069.53 13.3889 1065.56 16.8547 1062.9 20.3581ZM1082.7 27.3649H1166.75L1157.62 74.2615H1073.57L1082.7 27.3649Z" fill="white"/>
</g>
</svg>
