<svg width="137" height="64" viewBox="0 0 137 64" fill="none" xmlns="http://www.w3.org/2000/svg">
<path d="M2.08311 52.6043H4.83864L3.85073 57.641C3.96864 57.4186 4.10674 57.2068 4.26714 57.0024C4.42648 56.7991 4.65275 56.5628 4.94593 56.2946C5.17963 56.0913 5.47388 55.8826 5.82974 55.6698L6.2026 55.4611L6.4926 55.3228L11.6924 52.6032H17.2725L6.95894 57.9593L15.2585 63.2323H9.63692L5.30179 60.4851C4.71861 60.1147 4.31282 59.7262 4.08337 59.3196C3.85392 58.913 3.76044 58.4596 3.80293 57.9593L2.76934 63.2323H0L2.08417 52.6043H2.08311Z" fill="white"/>
<path d="M18.0629 52.6043H20.8184L18.7342 63.2323H15.9787L18.0629 52.6043Z" fill="white"/>
<path d="M21.8318 54.8523C21.9264 54.3712 22.1505 53.9348 22.5042 53.541C22.858 53.1482 23.3201 52.8406 23.8894 52.6181C24.5087 52.3776 25.0898 52.3222 25.6326 52.451C26.1744 52.5809 26.6577 52.9087 27.0805 53.4367L32.9803 60.6373L34.5557 52.6043H37.3112L35.7709 60.4574C35.636 61.1419 35.4044 61.7039 35.073 62.1435C34.7416 62.5831 34.3124 62.9269 33.7834 63.177C33.1715 63.4729 32.5735 63.5655 31.9914 63.4548C31.4082 63.3441 30.8855 63.0109 30.4224 62.4553L24.5034 55.2823L22.944 63.2323H20.1885L21.8318 54.8523Z" fill="white"/>
<path d="M38.1217 55.5293C38.1472 55.4005 38.2014 55.2493 38.2864 55.079C38.3703 54.9077 38.4999 54.7075 38.6741 54.4766C38.7315 54.4212 38.7814 54.3637 38.826 54.3041C38.8706 54.2445 38.9163 54.186 38.9641 54.1306C39.3635 53.6964 39.7884 53.3643 40.2399 53.1333C40.6913 52.9023 41.2299 52.7459 41.8556 52.6618C41.9703 52.6437 42.0808 52.632 42.1881 52.6266C42.2954 52.6224 42.4409 52.6203 42.6257 52.6203H53.9803L53.4609 55.2706H40.9293L39.8872 60.5852H49.6633L49.9267 59.2398H45.1072L45.6266 56.5894H53.2017L52.5527 59.8986C52.4645 60.351 52.2935 60.7736 52.0406 61.1653C51.7878 61.558 51.416 61.9476 50.9253 62.335C50.7372 62.4915 50.5503 62.6235 50.3633 62.7299C50.1764 62.8364 49.9735 62.9258 49.7568 63.0003C49.539 63.0737 49.3042 63.1302 49.0525 63.1663C48.8007 63.2036 48.5171 63.2259 48.2005 63.2355H40.5841C40.1868 63.2355 39.8394 63.21 39.5398 63.1589C39.2403 63.1078 38.9747 63.0269 38.7431 62.9162C38.5105 62.8055 38.3034 62.6597 38.1228 62.4798C37.9411 62.2999 37.769 62.0807 37.6086 61.822C37.4206 61.508 37.3006 61.1887 37.2496 60.8662C37.1975 60.5426 37.2092 60.1871 37.2857 59.7996L38.1228 55.5314L38.1217 55.5293Z" fill="white"/>
<path d="M71.0394 52.6181L70.5199 55.2685H57.7111L57.472 56.4894H67.3448C67.5296 56.4894 67.7155 56.5032 67.9046 56.5309C68.2796 56.5958 68.6248 56.7097 68.9393 56.8715C69.2537 57.0333 69.5203 57.2355 69.7413 57.4761C70.0769 57.838 70.2851 58.2531 70.3701 58.7203C70.453 59.1887 70.4275 59.6613 70.2926 60.1381C70.1577 60.616 69.9197 61.0716 69.5809 61.508C69.2409 61.9433 68.8118 62.3095 68.2923 62.6065C68.1149 62.7087 67.9365 62.7991 67.7548 62.8779C67.5732 62.9567 67.3894 63.0195 67.2056 63.0652C66.8243 63.177 66.4482 63.2323 66.0786 63.2323H53.8932L54.4127 60.582H67.4298L67.6911 59.2504H57.6516C56.8761 59.2504 56.2154 59.0429 55.6683 58.6277C55.2317 58.3137 54.93 57.9359 54.7622 57.492C54.5954 57.0492 54.5476 56.5873 54.6188 56.1072C54.69 55.6272 54.8737 55.1589 55.1712 54.7022C55.4686 54.2456 55.8659 53.8507 56.3662 53.5186C56.5447 53.4079 56.7263 53.3036 56.9122 53.2067C57.0971 53.1099 57.3 53.0194 57.5188 52.9364C57.8067 52.8353 58.1009 52.7565 58.4026 52.7012C58.7043 52.6458 59.0123 52.6181 59.3257 52.6181H71.0404H71.0394Z" fill="white"/>
<path d="M77.4332 55.1716L78.0313 54.3116C78.0769 54.2658 78.1194 54.2169 78.1566 54.1658C78.1949 54.1147 78.231 54.0668 78.2681 54.0199C78.7132 53.4931 79.1201 53.1109 79.4898 52.8757C79.8584 52.6394 80.2259 52.4851 80.5913 52.4106C81.1628 52.318 81.6419 52.3946 82.0275 52.6394C82.4131 52.8842 82.752 53.3451 83.0441 54.0199C83.0686 54.0849 83.094 54.1445 83.1195 54.2009C83.145 54.2573 83.1705 54.3169 83.195 54.3818L83.4722 55.228L86.3202 63.2345H83.2045L82.2113 60.3212H76.6588L74.5364 63.2345H71.3931L77.4321 55.1727L77.4332 55.1716ZM80.4246 55.31L78.6856 57.6134H81.234L80.4256 55.31H80.4246Z" fill="white"/>
<mask id="mask0_2001_305" style="mask-type:luminance" maskUnits="userSpaceOnUse" x="71" y="52" width="16" height="12">
<path d="M77.4332 55.1716L78.0313 54.3116C78.0769 54.2658 78.1194 54.2169 78.1566 54.1658C78.1949 54.1147 78.231 54.0668 78.2681 54.0199C78.7132 53.4931 79.1201 53.1109 79.4898 52.8757C79.8584 52.6394 80.2259 52.4851 80.5913 52.4106C81.1628 52.318 81.6419 52.3946 82.0275 52.6394C82.4131 52.8842 82.752 53.3451 83.0441 54.0199C83.0686 54.0849 83.094 54.1445 83.1195 54.2009C83.145 54.2573 83.1705 54.3169 83.195 54.3818L83.4722 55.228L86.3202 63.2345H83.2045L82.2113 60.3212H76.6588L74.5364 63.2345H71.3931L77.4321 55.1727L77.4332 55.1716ZM80.4246 55.31L78.6856 57.6134H81.234L80.4256 55.31H80.4246Z" fill="white"/>
</mask>
<g mask="url(#mask0_2001_305)">
<path d="M81.234 55.31H78.6856V57.6133H81.234V55.31Z" fill="white"/>
<path d="M86.3202 52.318H71.3931V63.2334H86.3202V52.318Z" fill="white"/>
</g>
<path d="M88.5987 52.6043H91.3543L89.7895 60.582H99.7186L101.283 52.6043H104.039L102.561 60.1381C102.492 60.4894 102.384 60.7927 102.237 61.0471C102.091 61.3015 101.853 61.5857 101.523 61.9008C101.466 61.9561 101.41 62.0093 101.353 62.0604C101.297 62.1115 101.242 62.1594 101.187 62.2062C100.77 62.5394 100.354 62.7938 99.9364 62.9694C99.5189 63.145 99.1163 63.2334 98.7286 63.2334H89.866C89.6164 63.2334 89.3901 63.21 89.1872 63.1642C88.9833 63.1184 88.7931 63.0439 88.6147 62.9428C88.4362 62.8406 88.2673 62.7023 88.108 62.5266C87.9486 62.351 87.7872 62.1381 87.6236 61.888C87.3729 61.5176 87.2178 61.1802 87.1583 60.8747C87.0977 60.5692 87.1073 60.2137 87.187 59.806L88.5987 52.6053V52.6043Z" fill="white"/>
<mask id="mask1_2001_305" style="mask-type:luminance" maskUnits="userSpaceOnUse" x="87" y="52" width="18" height="12">
<path d="M88.5987 52.6043H91.3543L89.7895 60.582H99.7186L101.283 52.6043H104.039L102.561 60.1381C102.492 60.4894 102.384 60.7927 102.237 61.0471C102.091 61.3015 101.853 61.5857 101.523 61.9008C101.466 61.9561 101.41 62.0093 101.353 62.0604C101.297 62.1115 101.242 62.1594 101.187 62.2062C100.77 62.5394 100.354 62.7938 99.9364 62.9694C99.5189 63.145 99.1163 63.2334 98.7286 63.2334H89.866C89.6164 63.2334 89.3901 63.21 89.1872 63.1642C88.9833 63.1184 88.7931 63.0439 88.6147 62.9428C88.4362 62.8406 88.2673 62.7023 88.108 62.5266C87.9486 62.351 87.7872 62.1381 87.6236 61.888C87.3729 61.5176 87.2178 61.1802 87.1583 60.8747C87.0977 60.5692 87.1073 60.2137 87.187 59.806L88.5987 52.6053V52.6043Z" fill="white"/>
</mask>
<g mask="url(#mask1_2001_305)">
<path d="M92.6396 52.6043H87.0967V63.2323H92.6396V52.6043Z" fill="white"/>
<path d="M93.0539 52.6043H92.6407V63.2323H93.0539V52.6043Z" fill="white"/>
<path d="M93.4661 52.6043H93.0529V63.2323H93.4661V52.6043Z" fill="white"/>
<path d="M93.8793 52.6043H93.4661V63.2323H93.8793V52.6043Z" fill="white"/>
<path d="M94.2915 52.6043H93.8782V63.2323H94.2915V52.6043Z" fill="white"/>
<path d="M94.7047 52.6043H94.2914V63.2323H94.7047V52.6043Z" fill="white"/>
<path d="M95.1168 52.6043H94.7036V63.2323H95.1168V52.6043Z" fill="white"/>
<path d="M95.53 52.6043H95.1168V63.2323H95.53V52.6043Z" fill="white"/>
<path d="M95.9422 52.6043H95.529V63.2323H95.9422V52.6043Z" fill="white"/>
<path d="M96.3554 52.6043H95.9422V63.2323H96.3554V52.6043Z" fill="white"/>
<path d="M96.7686 52.6043H96.3554V63.2323H96.7686V52.6043Z" fill="white"/>
<path d="M97.1808 52.6043H96.7676V63.2323H97.1808V52.6043Z" fill="white"/>
<path d="M97.594 52.6043H97.1808V63.2323H97.594V52.6043Z" fill="white"/>
<path d="M98.0062 52.6043H97.593V63.2323H98.0062V52.6043Z" fill="white"/>
<path d="M98.4195 52.6043H98.0062V63.2323H98.4195V52.6043Z" fill="white"/>
<path d="M98.8316 52.6043H98.4183V63.2323H98.8316V52.6043Z" fill="white"/>
<path d="M99.2448 52.6043H98.8316V63.2323H99.2448V52.6043Z" fill="white"/>
<path d="M99.657 52.6043H99.2438V63.2323H99.657V52.6043Z" fill="white"/>
<path d="M100.07 52.6043H99.657V63.2323H100.07V52.6043Z" fill="white"/>
<path d="M100.483 52.6043H100.07V63.2323H100.483V52.6043Z" fill="white"/>
<path d="M100.896 52.6043H100.482V63.2323H100.896V52.6043Z" fill="white"/>
<path d="M101.309 52.6043H100.896V63.2323H101.309V52.6043Z" fill="white"/>
<path d="M101.721 52.6043H101.308V63.2323H101.721V52.6043Z" fill="white"/>
<path d="M102.134 52.6043H101.721V63.2323H102.134V52.6043Z" fill="white"/>
<path d="M102.546 52.6043H102.133V63.2323H102.546V52.6043Z" fill="white"/>
<path d="M102.96 52.6043H102.546V63.2323H102.96V52.6043Z" fill="white"/>
<path d="M103.372 52.6043H102.958V63.2323H103.372V52.6043Z" fill="white"/>
<path d="M103.785 52.6043H103.372V63.2323H103.785V52.6043Z" fill="white"/>
<path d="M104.039 52.6043H103.785V63.2323H104.039V52.6043Z" fill="white"/>
</g>
<path d="M104.825 52.6181H119.891L119.372 55.2685H113.223L111.662 63.2323H108.906L110.468 55.2685H104.305L104.825 52.6181Z" fill="white"/>
<mask id="mask2_2001_305" style="mask-type:luminance" maskUnits="userSpaceOnUse" x="104" y="52" width="16" height="12">
<path d="M104.825 52.6181H119.891L119.372 55.2685H113.223L111.662 63.2323H108.906L110.468 55.2685H104.305L104.825 52.6181Z" fill="white"/>
</mask>
<g mask="url(#mask2_2001_305)">
<path d="M104.61 52.6181H104.305V63.2323H104.61V52.6181Z" fill="white"/>
<path d="M105.024 52.6181H104.61V63.2323H105.024V52.6181Z" fill="white"/>
<path d="M105.436 52.6181H105.023V63.2323H105.436V52.6181Z" fill="white"/>
<path d="M105.849 52.6181H105.436V63.2323H105.849V52.6181Z" fill="white"/>
<path d="M106.261 52.6181H105.848V63.2323H106.261V52.6181Z" fill="white"/>
<path d="M106.674 52.6181H106.261V63.2323H106.674V52.6181Z" fill="white"/>
<path d="M107.087 52.6181H106.673V63.2323H107.087V52.6181Z" fill="white"/>
<path d="M107.5 52.6181H107.086V63.2323H107.5V52.6181Z" fill="white"/>
<path d="M107.913 52.6181H107.5V63.2323H107.913V52.6181Z" fill="white"/>
<path d="M108.325 52.6181H107.912V63.2323H108.325V52.6181Z" fill="white"/>
<path d="M108.738 52.6181H108.325V63.2323H108.738V52.6181Z" fill="white"/>
<path d="M109.151 52.6181H108.737V63.2323H109.151V52.6181Z" fill="white"/>
<path d="M109.564 52.6181H109.151V63.2323H109.564V52.6181Z" fill="white"/>
<path d="M109.976 52.6181H109.563V63.2323H109.976V52.6181Z" fill="white"/>
<path d="M110.389 52.6181H109.976V63.2323H110.389V52.6181Z" fill="white"/>
<path d="M110.802 52.6181H110.389V63.2323H110.802V52.6181Z" fill="white"/>
<path d="M111.214 52.6181H110.801V63.2323H111.214V52.6181Z" fill="white"/>
<path d="M111.628 52.6181H111.214V63.2323H111.628V52.6181Z" fill="white"/>
<path d="M112.04 52.6181H111.627V63.2323H112.04V52.6181Z" fill="white"/>
<path d="M112.453 52.6181H112.04V63.2323H112.453V52.6181Z" fill="white"/>
<path d="M112.753 52.6181H112.452V63.2323H112.753V52.6181Z" fill="white"/>
<path d="M113.054 52.6181H112.754V63.2323H113.054V52.6181Z" fill="white"/>
<path d="M113.355 52.6181H113.054V63.2323H113.355V52.6181Z" fill="white"/>
<path d="M113.657 52.6181H113.356V63.2323H113.657V52.6181Z" fill="white"/>
<path d="M113.957 52.6181H113.657V63.2323H113.957V52.6181Z" fill="white"/>
<path d="M114.259 52.6181H113.958V63.2323H114.259V52.6181Z" fill="white"/>
<path d="M114.56 52.6181H114.259V63.2323H114.56V52.6181Z" fill="white"/>
<path d="M114.861 52.6181H114.561V63.2323H114.861V52.6181Z" fill="white"/>
<path d="M115.162 52.6181H114.861V63.2323H115.162V52.6181Z" fill="white"/>
<path d="M115.464 52.6181H115.163V63.2323H115.464V52.6181Z" fill="white"/>
<path d="M115.764 52.6181H115.464V63.2323H115.764V52.6181Z" fill="white"/>
<path d="M116.066 52.6181H115.765V63.2323H116.066V52.6181Z" fill="white"/>
<path d="M116.366 52.6181H116.066V63.2323H116.366V52.6181Z" fill="white"/>
<path d="M116.668 52.6181H116.368V63.2323H116.668V52.6181Z" fill="white"/>
<path d="M116.969 52.6181H116.668V63.2323H116.969V52.6181Z" fill="white"/>
<path d="M117.27 52.6181H116.97V63.2323H117.27V52.6181Z" fill="white"/>
<path d="M117.571 52.6181H117.271V63.2323H117.571V52.6181Z" fill="white"/>
<path d="M117.873 52.6181H117.572V63.2323H117.873V52.6181Z" fill="white"/>
<path d="M118.173 52.6181H117.873V63.2323H118.173V52.6181Z" fill="white"/>
<path d="M118.475 52.6181H118.174V63.2323H118.475V52.6181Z" fill="white"/>
<path d="M118.776 52.6181H118.475V63.2323H118.776V52.6181Z" fill="white"/>
<path d="M119.077 52.6181H118.777V63.2323H119.077V52.6181Z" fill="white"/>
<path d="M119.378 52.6181H119.077V63.2323H119.378V52.6181Z" fill="white"/>
<path d="M119.68 52.6181H119.379V63.2323H119.68V52.6181Z" fill="white"/>
<path d="M119.891 52.6181H119.68V63.2323H119.891V52.6181Z" fill="white"/>
</g>
<path d="M119.839 55.7773C119.931 55.3057 120.13 54.8715 120.434 54.4744C120.738 54.0774 121.191 53.6847 121.794 53.2961C122.135 53.0652 122.469 52.8991 122.799 52.7969C123.128 52.6958 123.525 52.6352 123.989 52.6171H132.201C132.588 52.6171 132.928 52.6703 133.223 52.7767C133.515 52.8832 133.787 53.0513 134.037 53.2823C134.149 53.3749 134.253 53.4994 134.352 53.657C134.504 53.8699 134.626 54.0678 134.719 54.253C134.813 54.4372 134.88 54.6224 134.922 54.8076C134.965 54.9928 134.982 55.1844 134.975 55.3824C134.969 55.5814 134.943 55.7911 134.9 56.0125L134.126 59.9614C134.037 60.4138 133.882 60.8119 133.663 61.1536C133.444 61.4952 133.117 61.855 132.683 62.2339C132.255 62.5852 131.84 62.8396 131.44 62.996C131.04 63.1525 130.586 63.2313 130.078 63.2313H121.798C121.511 63.2313 121.255 63.211 121.028 63.1695C120.8 63.128 120.594 63.0631 120.408 62.9758C120.223 62.8885 120.052 62.7725 119.894 62.6288C119.738 62.4862 119.588 62.3074 119.445 62.0956C119.212 61.772 119.065 61.4303 119.002 61.0705C118.938 60.7097 118.955 60.285 119.051 59.7964L119.839 55.7773ZM132.291 55.2685H122.694L121.652 60.583H131.249L132.291 55.2685Z" fill="white"/>
<mask id="mask3_2001_305" style="mask-type:luminance" maskUnits="userSpaceOnUse" x="118" y="52" width="17" height="12">
<path d="M119.839 55.7773C119.931 55.3057 120.13 54.8715 120.434 54.4744C120.738 54.0774 121.191 53.6847 121.794 53.2961C122.135 53.0652 122.469 52.8991 122.799 52.7969C123.128 52.6958 123.525 52.6352 123.989 52.6171H132.201C132.588 52.6171 132.928 52.6703 133.223 52.7767C133.515 52.8832 133.787 53.0513 134.037 53.2823C134.149 53.3749 134.253 53.4994 134.352 53.657C134.504 53.8699 134.626 54.0678 134.719 54.253C134.813 54.4372 134.88 54.6224 134.922 54.8076C134.965 54.9928 134.982 55.1844 134.975 55.3824C134.969 55.5814 134.943 55.7911 134.9 56.0125L134.126 59.9614C134.037 60.4138 133.882 60.8119 133.663 61.1536C133.444 61.4952 133.117 61.855 132.683 62.2339C132.255 62.5852 131.84 62.8396 131.44 62.996C131.04 63.1525 130.586 63.2313 130.078 63.2313H121.798C121.511 63.2313 121.255 63.211 121.028 63.1695C120.8 63.128 120.594 63.0631 120.408 62.9758C120.223 62.8885 120.052 62.7725 119.894 62.6288C119.738 62.4862 119.588 62.3074 119.445 62.0956C119.212 61.772 119.065 61.4303 119.002 61.0705C118.938 60.7097 118.955 60.285 119.051 59.7964L119.839 55.7773ZM132.291 55.2685H122.694L121.652 60.583H131.249L132.291 55.2685Z" fill="white"/>
</mask>
<g mask="url(#mask3_2001_305)">
<path d="M121.787 55.2685H121.652V60.583H121.787V55.2685Z" fill="white"/>
<path d="M122.088 55.2685H121.787V60.583H122.088V55.2685Z" fill="white"/>
<path d="M122.39 55.2685H122.089V60.583H122.39V55.2685Z" fill="white"/>
<path d="M122.69 55.2685H122.39V60.583H122.69V55.2685Z" fill="white"/>
<path d="M122.992 55.2685H122.691V60.583H122.992V55.2685Z" fill="white"/>
<path d="M123.293 55.2685H122.992V60.583H123.293V55.2685Z" fill="white"/>
<path d="M123.594 55.2685H123.294V60.583H123.594V55.2685Z" fill="white"/>
<path d="M123.895 55.2685H123.594V60.583H123.895V55.2685Z" fill="white"/>
<path d="M124.197 55.2685H123.896V60.583H124.197V55.2685Z" fill="white"/>
<path d="M124.497 55.2685H124.197V60.583H124.497V55.2685Z" fill="white"/>
<path d="M124.799 55.2685H124.498V60.583H124.799V55.2685Z" fill="white"/>
<path d="M125.099 55.2685H124.799V60.583H125.099V55.2685Z" fill="white"/>
<path d="M125.401 55.2685H125.101V60.583H125.401V55.2685Z" fill="white"/>
<path d="M125.702 55.2685H125.401V60.583H125.702V55.2685Z" fill="white"/>
<path d="M126.003 55.2685H125.703V60.583H126.003V55.2685Z" fill="white"/>
<path d="M126.304 55.2685H126.003V60.583H126.304V55.2685Z" fill="white"/>
<path d="M126.606 55.2685H126.305V60.583H126.606V55.2685Z" fill="white"/>
<path d="M126.906 55.2685H126.606V60.583H126.906V55.2685Z" fill="white"/>
<path d="M127.208 55.2685H126.907V60.583H127.208V55.2685Z" fill="white"/>
<path d="M127.509 55.2685H127.208V60.583H127.509V55.2685Z" fill="white"/>
<path d="M127.81 55.2685H127.51V60.583H127.81V55.2685Z" fill="white"/>
<path d="M128.067 55.2685H127.81V60.583H128.067V55.2685Z" fill="white"/>
<path d="M128.325 55.2685H128.067V60.583H128.325V55.2685Z" fill="white"/>
<path d="M128.582 55.2685H128.325V60.583H128.582V55.2685Z" fill="white"/>
<path d="M128.839 55.2685H128.582V60.583H128.839V55.2685Z" fill="white"/>
<path d="M129.096 55.2685H128.839V60.583H129.096V55.2685Z" fill="white"/>
<path d="M129.353 55.2685H129.096V60.583H129.353V55.2685Z" fill="white"/>
<path d="M129.61 55.2685H129.353V60.583H129.61V55.2685Z" fill="white"/>
<path d="M129.867 55.2685H129.61V60.583H129.867V55.2685Z" fill="white"/>
<path d="M130.124 55.2685H129.867V60.583H130.124V55.2685Z" fill="white"/>
<path d="M130.381 55.2685H130.124V60.583H130.381V55.2685Z" fill="white"/>
<path d="M130.638 55.2685H130.381V60.583H130.638V55.2685Z" fill="white"/>
<path d="M130.895 55.2685H130.638V60.583H130.895V55.2685Z" fill="white"/>
<path d="M131.152 55.2685H130.895V60.583H131.152V55.2685Z" fill="white"/>
<path d="M131.409 55.2685H131.152V60.583H131.409V55.2685Z" fill="white"/>
<path d="M131.666 55.2685H131.409V60.583H131.666V55.2685Z" fill="white"/>
<path d="M131.923 55.2685H131.666V60.583H131.923V55.2685Z" fill="white"/>
<path d="M132.181 55.2685H131.923V60.583H132.181V55.2685Z" fill="white"/>
<path d="M132.29 55.2685H132.181V60.583H132.29V55.2685Z" fill="white"/>
<path d="M119.078 52.6181H118.939V63.2323H119.078V52.6181Z" fill="white"/>
<path d="M119.378 52.6181H119.077V63.2323H119.378V52.6181Z" fill="white"/>
<path d="M119.68 52.6181H119.379V63.2323H119.68V52.6181Z" fill="white"/>
<path d="M119.98 52.6181H119.68V63.2323H119.98V52.6181Z" fill="white"/>
<path d="M120.282 52.6181H119.981V63.2323H120.282V52.6181Z" fill="white"/>
<path d="M120.583 52.6181H120.282V63.2323H120.583V52.6181Z" fill="white"/>
<path d="M120.884 52.6181H120.584V63.2323H120.884V52.6181Z" fill="white"/>
<path d="M121.185 52.6181H120.884V63.2323H121.185V52.6181Z" fill="white"/>
<path d="M121.487 52.6181H121.186V63.2323H121.487V52.6181Z" fill="white"/>
<path d="M121.787 52.6181H121.487V63.2323H121.787V52.6181Z" fill="white"/>
<path d="M122.088 52.6181H121.787V63.2323H122.088V52.6181Z" fill="white"/>
<path d="M122.39 52.6181H122.089V63.2323H122.39V52.6181Z" fill="white"/>
<path d="M122.69 52.6181H122.39V63.2323H122.69V52.6181Z" fill="white"/>
<path d="M122.992 52.6181H122.691V63.2323H122.992V52.6181Z" fill="white"/>
<path d="M123.293 52.6181H122.992V63.2323H123.293V52.6181Z" fill="white"/>
<path d="M123.594 52.6181H123.294V63.2323H123.594V52.6181Z" fill="white"/>
<path d="M123.895 52.6181H123.594V63.2323H123.895V52.6181Z" fill="white"/>
<path d="M124.197 52.6181H123.896V63.2323H124.197V52.6181Z" fill="white"/>
<path d="M124.497 52.6181H124.197V63.2323H124.497V52.6181Z" fill="white"/>
<path d="M124.799 52.6181H124.498V63.2323H124.799V52.6181Z" fill="white"/>
<path d="M125.099 52.6181H124.799V63.2323H125.099V52.6181Z" fill="white"/>
<path d="M125.401 52.6181H125.101V63.2323H125.401V52.6181Z" fill="white"/>
<path d="M125.702 52.6181H125.401V63.2323H125.702V52.6181Z" fill="white"/>
<path d="M126.003 52.6181H125.703V63.2323H126.003V52.6181Z" fill="white"/>
<path d="M126.304 52.6181H126.003V63.2323H126.304V52.6181Z" fill="white"/>
<path d="M126.606 52.6181H126.305V63.2323H126.606V52.6181Z" fill="white"/>
<path d="M126.906 52.6181H126.606V63.2323H126.906V52.6181Z" fill="white"/>
<path d="M127.208 52.6181H126.907V63.2323H127.208V52.6181Z" fill="white"/>
<path d="M127.509 52.6181H127.208V63.2323H127.509V52.6181Z" fill="white"/>
<path d="M127.81 52.6181H127.51V63.2323H127.81V52.6181Z" fill="white"/>
<path d="M128.067 52.6181H127.81V63.2323H128.067V52.6181Z" fill="white"/>
<path d="M128.325 52.6181H128.067V63.2323H128.325V52.6181Z" fill="white"/>
<path d="M128.582 52.6181H128.325V63.2323H128.582V52.6181Z" fill="white"/>
<path d="M128.839 52.6181H128.582V63.2323H128.839V52.6181Z" fill="white"/>
<path d="M129.096 52.6181H128.839V63.2323H129.096V52.6181Z" fill="white"/>
<path d="M129.353 52.6181H129.096V63.2323H129.353V52.6181Z" fill="white"/>
<path d="M129.61 52.6181H129.353V63.2323H129.61V52.6181Z" fill="white"/>
<path d="M129.867 52.6181H129.61V63.2323H129.867V52.6181Z" fill="white"/>
<path d="M130.124 52.6181H129.867V63.2323H130.124V52.6181Z" fill="white"/>
<path d="M130.381 52.6181H130.124V63.2323H130.381V52.6181Z" fill="white"/>
<path d="M130.638 52.6181H130.381V63.2323H130.638V52.6181Z" fill="white"/>
<path d="M130.895 52.6181H130.638V63.2323H130.895V52.6181Z" fill="white"/>
<path d="M131.152 52.6181H130.895V63.2323H131.152V52.6181Z" fill="white"/>
<path d="M131.409 52.6181H131.152V63.2323H131.409V52.6181Z" fill="white"/>
<path d="M131.666 52.6181H131.409V63.2323H131.666V52.6181Z" fill="white"/>
<path d="M131.923 52.6181H131.666V63.2323H131.923V52.6181Z" fill="white"/>
<path d="M132.181 52.6181H131.923V63.2323H132.181V52.6181Z" fill="white"/>
<path d="M132.438 52.6181H132.181V63.2323H132.438V52.6181Z" fill="white"/>
<path d="M132.695 52.6181H132.438V63.2323H132.695V52.6181Z" fill="white"/>
<path d="M132.952 52.6181H132.695V63.2323H132.952V52.6181Z" fill="white"/>
<path d="M133.209 52.6181H132.952V63.2323H133.209V52.6181Z" fill="white"/>
<path d="M133.466 52.6181H133.209V63.2323H133.466V52.6181Z" fill="white"/>
<path d="M133.723 52.6181H133.466V63.2323H133.723V52.6181Z" fill="white"/>
<path d="M133.98 52.6181H133.723V63.2323H133.98V52.6181Z" fill="white"/>
<path d="M134.237 52.6181H133.98V63.2323H134.237V52.6181Z" fill="white"/>
<path d="M134.494 52.6181H134.237V63.2323H134.494V52.6181Z" fill="white"/>
<path d="M134.751 52.6181H134.494V63.2323H134.751V52.6181Z" fill="white"/>
<path d="M134.983 52.6181H134.752V63.2323H134.983V52.6181Z" fill="white"/>
</g>
<path d="M17.3192 21.9836C15.9744 25.6824 11.2696 25.6888 7.44756 25.6153C5.10207 25.5727 3.08481 25.4993 2.3869 26.2369C3.30789 22.6829 8.89862 21.7739 13.0394 21.7047C15.0215 21.6728 16.6723 21.8314 17.3182 21.9836H17.3192Z" fill="url(#paint0_linear_2001_305)"/>
<path d="M109.648 4.49227C96.3395 2.40498 84.7565 0.557176 66.3941 3.70355C58.4886 4.36454 33.3203 13.1554 33.3203 13.1554C39.5027 9.36403 61.1932 2.17187 66.2857 1.55559C70.863 1.0021 88.5711 -1.68232 109.648 4.49227Z" fill="url(#paint1_linear_2001_305)"/>
<path d="M124.782 19.8995C133.226 17.9474 136.491 13.9197 136.491 13.9197C137.999 18.14 136.725 21.7877 124.782 19.8995Z" fill="url(#paint2_linear_2001_305)"/>
<path d="M49.4541 21.3002C49.4541 21.3002 66.5343 15.8175 74.1614 17.479C81.7896 19.1406 92.5674 21.3002 96.382 20.1379C96.382 20.1379 85.9356 23.2949 80.4628 22.2976C74.991 21.3002 74.1614 17.693 69.6839 19.8292C65.2065 21.9655 62.0558 24.6244 62.0558 24.6244C62.0558 24.6244 63.2933 28.3657 69.6839 23.1289C73.83 21.5429 83.4467 29.941 84.1106 30.9384C84.117 30.948 84.1234 30.9586 84.1298 30.9682C84.8394 32.0581 86.0642 32.6978 87.3622 32.6382L109.647 31.6026L86.0992 34.2615C86.0992 34.2615 87.5917 37.576 82.7828 37.4972C82.7828 37.4972 82.2857 40.4094 78.6368 39.4121C78.6368 39.4121 77.6414 42.9012 73.3307 40.9076C73.3307 40.9076 68.2297 45.873 55.5685 37.3205C53.6861 36.0497 51.5212 35.2609 49.266 35.0012L34.1967 33.2641L51.5712 32.8532C53.6649 32.8032 55.679 33.6196 57.1736 35.0896C59.2482 37.13 63.1 39.8368 69.1857 40.2434C71.4006 39.9741 69.7041 38.3424 68.9775 37.7293C68.8022 37.5824 68.729 37.3472 68.7874 37.1258C68.8968 36.717 69.3865 36.5542 69.7179 36.815C70.8822 37.7303 74.5778 40.1891 75.5498 40.3104C76.8766 40.4765 77.3737 39.3046 76.8766 38.2295C76.4548 37.3174 72.7932 34.8905 72.1133 34.3988C71.9923 34.3115 71.9211 34.171 71.9211 34.022C71.9211 33.6409 72.3534 33.4206 72.6604 33.6452C74.3664 34.8937 79.8286 38.7405 80.483 38.4169C81.3126 38.006 81.9755 37.0087 80.9801 35.6792C80.2344 34.6819 76.9265 32.486 75.9938 31.9091C75.7176 31.7388 75.639 31.3727 75.8186 31.1023C75.9991 30.8309 76.3677 30.7649 76.6312 30.9554L82.9124 35.7325C82.9124 35.7325 85.3588 36.7106 84.5706 33.5728C83.2438 32.4094 77.9909 26.6467 71.92 24.2912C66.0329 24.2912 68.8522 28.6116 61.224 26.2848C58.903 25.6206 60.5612 23.626 62.7165 22.2976C64.8718 20.9681 66.3643 20.1379 65.8672 19.3066C65.5262 18.7361 61.2771 20.437 58.6469 21.5589C57.2713 22.1454 55.7597 22.3295 54.2842 22.089L49.4519 21.3002H49.4541Z" fill="url(#paint3_linear_2001_305)"/>
<path d="M137 11.8558C116.05 17.1863 97.8649 1.0766 66.3941 3.70355C58.4886 4.36454 33.3203 13.1554 33.3203 13.1554C39.5027 9.36403 61.1932 2.17187 66.2857 1.55559C70.863 1.0021 88.5711 -1.68232 109.648 4.49227H109.658C111.484 5.02979 113.335 5.63011 115.204 6.30601C128.737 11.1905 136.999 11.8558 136.999 11.8558H137Z" fill="url(#paint4_linear_2001_305)"/>
<path d="M123.36 14.6871C123.386 14.6733 123.418 14.7009 123.398 14.7201C115.717 22.2593 95.7796 15.4694 81.2212 14.2667C76.6535 13.8856 72.3417 13.7749 68.6535 14.3774C77.9367 10.5668 87.5747 10.5668 96.109 11.3534C101.416 11.843 106.672 12.7052 111.847 13.8558C115.984 14.7754 121.505 15.7143 123.359 14.6871H123.36Z" fill="url(#paint5_linear_2001_305)"/>
<path d="M71.0394 8.23045C70.2543 12.7765 62.6294 15.1203 52.7279 16.4231C33.5359 18.9479 5.78406 17.5535 2.63336 20.6914C5.75856 16.9915 17.4095 15.809 30.279 14.9841H30.3363C47.6832 13.8643 67.2226 13.3875 71.0404 8.23045H71.0394Z" fill="url(#paint6_linear_2001_305)"/>
<defs>
<linearGradient id="paint0_linear_2001_305" x1="9.65919" y1="22.2565" x2="10.062" y2="26.0323" gradientUnits="userSpaceOnUse">
<stop stop-color="#FFF7A1"/>
<stop offset="0.03" stop-color="#FFE678"/>
<stop offset="0.04" stop-color="#F5D266"/>
<stop offset="0.08" stop-color="#D79A32"/>
<stop offset="0.11" stop-color="#C47712"/>
<stop offset="0.13" stop-color="#BE6A06"/>
<stop offset="0.16" stop-color="#C67A14"/>
<stop offset="0.23" stop-color="#DCA43B"/>
<stop offset="0.32" stop-color="#FFE678"/>
<stop offset="0.39" stop-color="#FFF193"/>
<stop offset="0.44" stop-color="#FFF7A1"/>
<stop offset="0.69" stop-color="#FFE678"/>
<stop offset="0.7" stop-color="#F8DA6D"/>
<stop offset="0.75" stop-color="#DFAA41"/>
<stop offset="0.79" stop-color="#CD8722"/>
<stop offset="0.82" stop-color="#C2720F"/>
<stop offset="0.85" stop-color="#BE6B08"/>
<stop offset="0.87" stop-color="#BF6E0B"/>
<stop offset="0.89" stop-color="#C57915"/>
<stop offset="0.91" stop-color="#CF8C26"/>
<stop offset="0.93" stop-color="#DDA73E"/>
<stop offset="0.95" stop-color="#EFC85D"/>
<stop offset="0.96" stop-color="#FFE678"/>
<stop offset="0.98" stop-color="#FFEF8D"/>
<stop offset="1" stop-color="#FFF69B"/>
</linearGradient>
<linearGradient id="paint1_linear_2001_305" x1="33.446" y1="6.38201" x2="109.594" y2="7.76159" gradientUnits="userSpaceOnUse">
<stop stop-color="#FFF7A1"/>
<stop offset="0.03" stop-color="#FFE678"/>
<stop offset="0.04" stop-color="#F5D266"/>
<stop offset="0.08" stop-color="#D79A32"/>
<stop offset="0.11" stop-color="#C47712"/>
<stop offset="0.13" stop-color="#BE6A06"/>
<stop offset="0.16" stop-color="#C67A14"/>
<stop offset="0.23" stop-color="#DCA43B"/>
<stop offset="0.32" stop-color="#FFE678"/>
<stop offset="0.39" stop-color="#FFF193"/>
<stop offset="0.44" stop-color="#FFF7A1"/>
<stop offset="0.69" stop-color="#FFE678"/>
<stop offset="0.7" stop-color="#F8DA6D"/>
<stop offset="0.75" stop-color="#DFAA41"/>
<stop offset="0.79" stop-color="#CD8722"/>
<stop offset="0.82" stop-color="#C2720F"/>
<stop offset="0.85" stop-color="#BE6B08"/>
<stop offset="0.87" stop-color="#BF6E0B"/>
<stop offset="0.89" stop-color="#C57915"/>
<stop offset="0.91" stop-color="#CF8C26"/>
<stop offset="0.93" stop-color="#DDA73E"/>
<stop offset="0.95" stop-color="#EFC85D"/>
<stop offset="0.96" stop-color="#FFE678"/>
<stop offset="0.98" stop-color="#FFEF8D"/>
<stop offset="1" stop-color="#FFF69B"/>
</linearGradient>
<linearGradient id="paint2_linear_2001_305" x1="124.581" y1="18.3748" x2="137.079" y2="16.7814" gradientUnits="userSpaceOnUse">
<stop stop-color="#FFF7A1"/>
<stop offset="0.03" stop-color="#FFE678"/>
<stop offset="0.04" stop-color="#F5D266"/>
<stop offset="0.08" stop-color="#D79A32"/>
<stop offset="0.11" stop-color="#C47712"/>
<stop offset="0.13" stop-color="#BE6A06"/>
<stop offset="0.16" stop-color="#C67A14"/>
<stop offset="0.23" stop-color="#DCA43B"/>
<stop offset="0.32" stop-color="#FFE678"/>
<stop offset="0.39" stop-color="#FFF193"/>
<stop offset="0.44" stop-color="#FFF7A1"/>
<stop offset="0.69" stop-color="#FFE678"/>
<stop offset="0.7" stop-color="#F8DA6D"/>
<stop offset="0.75" stop-color="#DFAA41"/>
<stop offset="0.79" stop-color="#CD8722"/>
<stop offset="0.82" stop-color="#C2720F"/>
<stop offset="0.85" stop-color="#BE6B08"/>
<stop offset="0.87" stop-color="#BF6E0B"/>
<stop offset="0.89" stop-color="#C57915"/>
<stop offset="0.91" stop-color="#CF8C26"/>
<stop offset="0.93" stop-color="#DDA73E"/>
<stop offset="0.95" stop-color="#EFC85D"/>
<stop offset="0.96" stop-color="#FFE678"/>
<stop offset="0.98" stop-color="#FFEF8D"/>
<stop offset="1" stop-color="#FFF69B"/>
</linearGradient>
<linearGradient id="paint3_linear_2001_305" x1="34.1988" y1="29.7527" x2="109.648" y2="29.7527" gradientUnits="userSpaceOnUse">
<stop stop-color="#FFF7A1"/>
<stop offset="0.03" stop-color="#FFE678"/>
<stop offset="0.04" stop-color="#F5D266"/>
<stop offset="0.08" stop-color="#D79A32"/>
<stop offset="0.11" stop-color="#C47712"/>
<stop offset="0.13" stop-color="#BE6A06"/>
<stop offset="0.16" stop-color="#C67A14"/>
<stop offset="0.23" stop-color="#DCA43B"/>
<stop offset="0.32" stop-color="#FFE678"/>
<stop offset="0.39" stop-color="#FFF193"/>
<stop offset="0.44" stop-color="#FFF7A1"/>
<stop offset="0.69" stop-color="#FFE678"/>
<stop offset="0.7" stop-color="#F8DA6D"/>
<stop offset="0.75" stop-color="#DFAA41"/>
<stop offset="0.79" stop-color="#CD8722"/>
<stop offset="0.82" stop-color="#C2720F"/>
<stop offset="0.85" stop-color="#BE6B08"/>
<stop offset="0.87" stop-color="#BF6E0B"/>
<stop offset="0.89" stop-color="#C57915"/>
<stop offset="0.91" stop-color="#CF8C26"/>
<stop offset="0.93" stop-color="#DDA73E"/>
<stop offset="0.95" stop-color="#EFC85D"/>
<stop offset="0.96" stop-color="#FFE678"/>
<stop offset="0.98" stop-color="#FFEF8D"/>
<stop offset="1" stop-color="#FFF69B"/>
</linearGradient>
<linearGradient id="paint4_linear_2001_305" x1="75.2308" y1="9.44048" x2="132.545" y2="21.3065" gradientUnits="userSpaceOnUse">
<stop stop-color="#FFF7A1"/>
<stop offset="0.03" stop-color="#FFE678"/>
<stop offset="0.04" stop-color="#F5D266"/>
<stop offset="0.08" stop-color="#D79A32"/>
<stop offset="0.11" stop-color="#C47712"/>
<stop offset="0.13" stop-color="#BE6A06"/>
<stop offset="0.16" stop-color="#C67A14"/>
<stop offset="0.23" stop-color="#DCA43B"/>
<stop offset="0.32" stop-color="#FFE678"/>
<stop offset="0.39" stop-color="#FFF193"/>
<stop offset="0.44" stop-color="#FFF7A1"/>
<stop offset="0.69" stop-color="#FFE678"/>
<stop offset="0.7" stop-color="#F8DA6D"/>
<stop offset="0.75" stop-color="#DFAA41"/>
<stop offset="0.79" stop-color="#CD8722"/>
<stop offset="0.82" stop-color="#C2720F"/>
<stop offset="0.85" stop-color="#BE6B08"/>
<stop offset="0.87" stop-color="#BF6E0B"/>
<stop offset="0.89" stop-color="#C57915"/>
<stop offset="0.91" stop-color="#CF8C26"/>
<stop offset="0.93" stop-color="#DDA73E"/>
<stop offset="0.95" stop-color="#EFC85D"/>
<stop offset="0.96" stop-color="#FFE678"/>
<stop offset="0.98" stop-color="#FFEF8D"/>
<stop offset="1" stop-color="#FFF69B"/>
</linearGradient>
<linearGradient id="paint5_linear_2001_305" x1="88.3236" y1="14.8323" x2="122.44" y2="14.415" gradientUnits="userSpaceOnUse">
<stop stop-color="#FFF7A1"/>
<stop offset="0.03" stop-color="#FFE678"/>
<stop offset="0.04" stop-color="#F5D266"/>
<stop offset="0.08" stop-color="#D79A32"/>
<stop offset="0.11" stop-color="#C47712"/>
<stop offset="0.13" stop-color="#BE6A06"/>
<stop offset="0.16" stop-color="#C67A14"/>
<stop offset="0.23" stop-color="#DCA43B"/>
<stop offset="0.32" stop-color="#FFE678"/>
<stop offset="0.39" stop-color="#FFF193"/>
<stop offset="0.44" stop-color="#FFF7A1"/>
<stop offset="0.69" stop-color="#FFE678"/>
<stop offset="0.7" stop-color="#F8DA6D"/>
<stop offset="0.75" stop-color="#DFAA41"/>
<stop offset="0.79" stop-color="#CD8722"/>
<stop offset="0.82" stop-color="#C2720F"/>
<stop offset="0.85" stop-color="#BE6B08"/>
<stop offset="0.87" stop-color="#BF6E0B"/>
<stop offset="0.89" stop-color="#C57915"/>
<stop offset="0.91" stop-color="#CF8C26"/>
<stop offset="0.93" stop-color="#DDA73E"/>
<stop offset="0.95" stop-color="#EFC85D"/>
<stop offset="0.96" stop-color="#FFE678"/>
<stop offset="0.98" stop-color="#FFEF8D"/>
<stop offset="1" stop-color="#FFF69B"/>
</linearGradient>
<linearGradient id="paint6_linear_2001_305" x1="2.69999" y1="15.0383" x2="71.4687" y2="13.2651" gradientUnits="userSpaceOnUse">
<stop stop-color="#FFF7A1"/>
<stop offset="0.03" stop-color="#FFE678"/>
<stop offset="0.04" stop-color="#F5D266"/>
<stop offset="0.08" stop-color="#D79A32"/>
<stop offset="0.11" stop-color="#C47712"/>
<stop offset="0.13" stop-color="#BE6A06"/>
<stop offset="0.16" stop-color="#C67A14"/>
<stop offset="0.23" stop-color="#DCA43B"/>
<stop offset="0.32" stop-color="#FFE678"/>
<stop offset="0.39" stop-color="#FFF193"/>
<stop offset="0.44" stop-color="#FFF7A1"/>
<stop offset="0.69" stop-color="#FFE678"/>
<stop offset="0.7" stop-color="#F8DA6D"/>
<stop offset="0.75" stop-color="#DFAA41"/>
<stop offset="0.79" stop-color="#CD8722"/>
<stop offset="0.82" stop-color="#C2720F"/>
<stop offset="0.85" stop-color="#BE6B08"/>
<stop offset="0.87" stop-color="#BF6E0B"/>
<stop offset="0.89" stop-color="#C57915"/>
<stop offset="0.91" stop-color="#CF8C26"/>
<stop offset="0.93" stop-color="#DDA73E"/>
<stop offset="0.95" stop-color="#EFC85D"/>
<stop offset="0.96" stop-color="#FFE678"/>
<stop offset="0.98" stop-color="#FFEF8D"/>
<stop offset="1" stop-color="#FFF69B"/>
</linearGradient>
</defs>
</svg>
